<svg xmlns="http://www.w3.org/2000/svg"
     viewBox="0 0 1440 300">
  <path id="Selectie"
        fill="#111"
        d="M -0.00,-0.26
           C -0.00,-0.26 -0.00,41.74 -0.00,41.74
             -0.00,41.74 24.00,38.03 24.00,38.03
             24.00,38.03 43.00,36.61 43.00,36.61
             43.00,36.61 52.00,33.12 52.00,33.12
             52.00,33.12 65.00,31.06 65.00,31.06
             65.00,31.06 75.00,27.98 75.00,27.98
             75.00,27.98 84.71,26.32 84.71,26.32
             84.71,26.32 92.00,24.21 92.00,24.21
             92.00,24.21 102.00,24.21 102.00,24.21
             102.00,24.21 117.00,22.03 117.00,22.03
             117.00,22.03 175.00,16.74 175.00,16.74
             175.00,16.74 240.00,15.71 240.00,15.71
             240.00,15.71 252.00,15.71 252.00,15.71
             252.00,15.71 268.00,20.58 268.00,20.58
             268.00,20.58 286.00,20.58 286.00,20.58
             286.00,20.58 301.00,19.74 301.00,19.74
             301.00,19.74 324.00,19.74 324.00,19.74
             324.00,19.74 339.50,18.74 339.50,18.74
             339.50,18.74 378.50,18.74 378.50,18.74
             370.72,22.70 345.60,26.70 336.50,26.74
             332.82,26.76 320.73,27.38 319.30,31.05
             318.28,32.94 319.00,34.91 319.30,36.74
             319.30,36.74 298.50,43.22 298.50,43.22
             298.50,43.22 282.50,47.28 282.50,47.28
             282.50,47.28 245.50,52.96 245.50,52.96
             245.50,52.96 217.50,65.74 217.50,65.74
             217.50,65.74 225.50,67.74 225.50,67.74
             225.50,67.74 223.50,71.74 223.50,71.74
             223.50,71.74 231.50,70.74 231.50,70.74
             231.50,70.74 227.50,78.74 227.50,78.74
             227.50,78.74 231.50,80.74 231.50,80.74
             227.74,83.57 228.81,85.24 228.50,89.74
             232.91,91.32 235.44,94.40 238.12,98.20
             239.54,100.21 240.08,102.81 242.72,103.28
             242.72,103.28 254.50,101.90 254.50,101.90
             254.50,101.90 283.50,98.91 283.50,98.91
             283.50,98.91 312.50,96.65 312.50,96.65
             312.50,96.65 324.50,95.74 324.50,95.74
             324.50,95.74 349.50,94.40 349.50,94.40
             355.23,93.30 355.95,90.02 369.50,86.64
             382.27,83.44 408.17,80.90 421.50,80.74
             421.50,80.74 431.50,79.77 431.50,79.77
             431.50,79.77 441.50,79.77 441.50,79.77
             441.50,79.77 449.50,78.83 449.50,78.83
             449.50,78.83 484.31,76.57 484.31,76.57
             484.31,76.57 507.31,74.74 507.31,74.74
             507.31,74.74 522.31,73.74 522.31,73.74
             522.31,73.74 584.31,71.65 584.31,71.65
             584.31,71.65 591.31,70.68 591.31,70.68
             591.31,70.68 600.31,70.68 600.31,70.68
             600.31,70.68 607.03,68.95 607.03,68.95
             609.60,68.83 610.82,70.57 618.31,70.74
             616.57,62.83 614.44,66.35 603.31,62.74
             612.12,59.84 618.50,60.26 627.31,59.65
             627.31,59.65 638.31,58.74 638.31,58.74
             638.31,58.74 660.31,58.74 660.31,58.74
             660.31,58.74 674.31,57.74 674.31,57.74
             674.31,57.74 679.31,57.74 679.31,57.74
             690.38,57.76 687.64,60.68 693.33,60.51
             699.43,60.34 702.68,56.79 713.31,56.74
             713.31,56.74 742.31,54.74 742.31,54.74
             742.31,54.74 753.31,54.74 753.31,54.74
             753.31,54.74 776.31,53.65 776.31,53.65
             784.17,54.01 791.70,51.39 799.31,50.06
             808.43,48.48 815.28,48.84 824.31,48.74
             824.31,48.74 854.31,46.74 854.31,46.74
             854.31,46.74 882.31,46.74 882.31,46.74
             882.31,46.74 899.31,45.74 899.31,45.74
             899.31,45.74 936.31,45.74 936.31,45.74
             936.31,45.74 946.31,45.11 946.31,45.11
             954.06,45.51 965.53,48.19 973.31,46.19
             976.57,45.35 981.30,42.47 984.31,40.74
             984.31,40.74 982.31,38.74 982.31,38.74
             986.78,33.46 991.85,33.40 998.31,32.47
             998.31,32.47 1037.31,31.74 1037.31,31.74
             1037.31,31.74 1058.31,30.74 1058.31,30.74
             1058.31,30.74 1073.31,29.75 1073.31,29.75
             1073.31,29.75 1090.31,30.74 1090.31,30.74
             1090.31,30.74 1200.31,30.74 1200.31,30.74
             1200.31,30.74 1239.31,30.74 1239.31,30.74
             1239.31,30.74 1259.77,32.11 1259.77,32.11
             1261.02,31.66 1260.87,31.22 1261.31,30.74
             1266.83,34.68 1278.40,32.67 1285.31,32.74
             1285.31,32.74 1314.31,33.75 1314.31,33.75
             1322.24,33.88 1321.58,36.06 1327.31,36.64
             1327.31,36.64 1342.31,35.83 1342.31,35.83
             1342.31,35.83 1365.31,39.41 1365.31,39.41
             1365.31,39.41 1372.31,41.19 1372.31,41.19
             1372.31,41.19 1381.31,41.74 1381.31,41.74
             1381.31,41.74 1378.31,42.74 1378.31,42.74
             1378.31,42.74 1382.31,45.74 1382.31,45.74
             1386.22,39.71 1394.11,41.08 1400.31,40.65
             1400.31,40.65 1412.31,39.74 1412.31,39.74
             1412.31,39.74 1441.31,39.74 1441.31,39.74
             1441.31,39.74 1453.31,40.70 1453.31,40.70
             1453.31,40.70 1469.31,40.70 1469.31,40.70
             1469.31,40.70 1486.31,41.74 1486.31,41.74
             1486.31,41.74 1504.31,41.74 1504.31,41.74
             1504.31,41.74 1519.31,42.74 1519.31,42.74
             1519.31,42.74 1545.31,42.74 1545.31,42.74
             1545.31,42.74 1560.31,43.74 1560.31,43.74
             1560.31,43.74 1585.00,44.75 1585.00,44.75
             1585.00,44.75 1600.00,45.74 1600.00,45.74
             1600.00,45.74 1632.00,46.74 1632.00,46.74
             1632.00,46.74 1647.00,47.74 1647.00,47.74
             1647.00,47.74 1711.00,52.57 1711.00,52.57
             1711.00,52.57 1742.00,54.91 1742.00,54.91
             1742.00,54.91 1765.00,56.91 1765.00,56.91
             1765.00,56.91 1774.00,57.74 1774.00,57.74
             1796.80,58.01 1819.32,59.48 1842.00,61.91
             1862.35,64.09 1882.47,68.01 1903.00,67.74
             1911.60,67.62 1909.00,65.78 1920.00,65.74
             1920.00,65.74 1920.00,-0.26 1920.00,-0.26
             1920.00,-0.26 -0.00,-0.26 -0.00,-0.26 Z
           M 217.00,28.74
           C 217.00,28.74 238.00,27.74 238.00,27.74
             238.00,27.74 238.00,23.74 238.00,23.74
             234.28,23.74 221.18,23.93 218.57,25.91
             217.36,26.83 217.44,27.53 217.00,28.74 Z
           M 204.00,27.74
           C 204.00,27.74 204.00,30.74 204.00,30.74
             204.00,30.74 210.00,30.74 210.00,30.74
             210.00,30.74 210.00,27.74 210.00,27.74
             210.00,27.74 204.00,27.74 204.00,27.74 Z
           M 759.31,38.74
           C 759.31,38.74 753.31,39.74 753.31,39.74
             753.31,39.74 759.31,38.74 759.31,38.74 Z
           M 737.31,39.74
           C 737.31,39.74 726.31,40.74 726.31,40.74
             726.31,40.74 737.31,39.74 737.31,39.74 Z
           M 1356.31,39.74
           C 1356.31,39.74 1357.50,44.74 1357.50,44.74
             1357.50,44.74 1368.50,44.74 1368.50,44.74
             1366.70,39.61 1361.22,40.39 1356.31,39.74 Z
           M 692.31,41.74
           C 685.56,45.19 674.83,44.74 667.31,44.74
             667.31,44.74 624.31,44.74 624.31,44.74
             624.31,44.74 634.31,43.74 634.31,43.74
             634.31,43.74 650.31,42.70 650.31,42.70
             650.31,42.70 664.31,42.70 664.31,42.70
             664.31,42.70 676.31,41.74 676.31,41.74
             676.31,41.74 692.31,41.74 692.31,41.74 Z
           M 63.00,43.74
           C 64.18,50.44 69.21,48.74 75.00,48.74
             72.20,44.27 67.92,43.98 63.00,43.74 Z
           M 1573.00,47.74
           C 1573.00,47.74 1573.00,50.74 1573.00,50.74
             1576.72,50.61 1577.83,50.98 1580.00,47.74
             1580.00,47.74 1573.00,47.74 1573.00,47.74 Z
           M 1598.00,48.74
           C 1598.00,48.74 1598.00,51.74 1598.00,51.74
             1598.00,51.74 1605.00,51.74 1605.00,51.74
             1605.00,51.74 1605.00,48.74 1605.00,48.74
             1605.00,48.74 1598.00,48.74 1598.00,48.74 Z
           M 679.31,66.74
           C 682.18,66.19 682.19,66.45 683.31,63.74
             683.31,63.74 679.31,66.74 679.31,66.74 Z
           M 695.31,66.74
           C 695.31,66.74 701.31,63.74 701.31,63.74
             701.31,63.74 695.31,66.74 695.31,66.74 Z
           M 496.31,68.74
           C 496.31,68.74 480.31,70.83 480.31,70.83
             480.31,70.83 456.50,71.74 456.50,71.74
             456.50,71.74 466.50,70.46 466.50,70.46
             466.50,70.46 483.31,69.65 483.31,69.65
             483.31,69.65 496.31,68.74 496.31,68.74 Z" />
</svg>
