<svg xmlns="http://www.w3.org/2000/svg"
     viewBox="0 0 1000 262"
     id="logo" class="logo">
  <g fill="currentColor">
    <path id="Selectie" class="logo" fill="#111"
        d="M 354.00,6.10
           C 354.77,14.60 352.59,12.69 357.25,22.00
             359.55,26.59 361.20,30.00 366.00,32.44
             373.68,36.36 384.61,38.84 391.21,31.73
             399.05,23.47 396.49,15.58 391.21,7.00
             389.62,4.59 387.69,1.12 384.79,0.29
             375.38,-2.38 364.77,5.36 360.00,6.10
             357.74,6.61 356.21,6.29 354.00,6.10 Z
           M 685.00,1.00
           C 685.00,1.00 685.00,3.00 685.00,3.00
             685.00,3.00 688.00,3.00 688.00,3.00
             688.00,3.00 682.00,7.00 682.00,7.00
             679.51,1.12 677.66,2.00 672.00,3.00
             672.00,3.00 672.00,5.00 672.00,5.00
             672.00,5.00 681.00,9.00 681.00,9.00
             681.00,9.00 669.00,8.00 669.00,8.00
             669.00,8.00 669.00,4.00 669.00,4.00
             669.00,4.00 664.00,5.00 664.00,5.00
             664.00,5.00 664.00,7.00 664.00,7.00
             664.00,7.00 669.00,8.00 669.00,8.00
             669.00,8.00 667.00,12.00 667.00,12.00
             667.00,12.00 666.00,10.00 666.00,10.00
             666.00,10.00 664.00,10.00 664.00,10.00
             664.00,10.00 664.00,12.00 664.00,12.00
             664.00,12.00 660.00,11.00 660.00,11.00
             660.00,11.00 663.00,10.00 663.00,10.00
             663.00,10.00 663.00,5.00 663.00,5.00
             658.45,6.46 654.82,7.00 652.00,11.00
             652.00,11.00 660.00,11.00 660.00,11.00
             660.00,11.00 649.00,17.00 649.00,17.00
             642.28,15.70 638.18,19.10 632.00,21.00
             632.00,21.00 633.00,23.00 633.00,23.00
             633.00,23.00 630.00,24.00 630.00,24.00
             630.00,24.00 630.00,22.00 630.00,22.00
             630.00,22.00 628.00,22.00 628.00,22.00
             625.50,26.06 616.84,28.13 612.34,29.78
             612.34,29.78 590.09,40.12 590.09,40.12
             583.49,42.96 574.97,42.53 578.00,52.00
             576.86,52.12 574.38,52.21 573.58,53.10
             572.56,54.23 573.45,57.82 578.00,55.00
             578.00,55.00 576.00,59.00 576.00,59.00
             579.27,68.79 584.31,71.17 587.12,76.96
             589.08,80.99 587.62,83.93 589.13,85.56
             590.69,87.25 593.02,86.09 596.00,86.78
             600.72,87.87 602.19,91.09 607.00,88.00
             607.00,88.00 614.00,96.00 614.00,96.00
             614.00,96.00 614.00,92.00 614.00,92.00
             614.00,92.00 617.00,91.00 617.00,91.00
             619.10,91.57 622.34,92.61 623.89,90.40
             626.01,87.53 621.83,82.58 623.89,77.00
             626.03,70.98 631.63,67.90 635.83,63.55
             635.83,63.55 640.26,58.61 640.26,58.61
             643.64,55.37 651.78,50.53 656.28,49.15
             656.28,49.15 661.00,48.29 661.00,48.29
             661.00,48.29 669.53,44.71 669.53,44.71
             669.53,44.71 674.30,44.71 674.30,44.71
             674.30,44.71 686.00,42.17 686.00,42.17
             693.32,41.06 700.82,41.10 708.00,39.00
             709.97,40.99 710.30,40.49 713.00,40.00
             713.00,40.00 713.00,41.94 713.00,41.94
             713.00,41.94 717.00,41.94 717.00,41.94
             719.78,42.10 725.48,42.86 727.79,44.23
             733.25,47.45 734.40,53.20 734.93,59.00
             734.93,59.00 736.00,74.58 736.00,74.58
             736.06,80.01 735.10,79.42 736.00,87.00
             736.00,87.00 738.00,86.00 738.00,86.00
             738.00,86.00 736.00,93.00 736.00,93.00
             736.00,93.00 736.00,95.00 736.00,95.00
             736.00,95.00 738.00,101.00 738.00,101.00
             738.00,101.00 737.00,96.00 737.00,96.00
             737.00,96.00 735.00,97.00 735.00,97.00
             735.00,97.00 735.00,98.00 735.00,98.00
             735.00,98.00 734.00,97.00 734.00,97.00
             734.00,97.00 732.00,103.00 732.00,103.00
             732.00,103.00 736.00,103.00 736.00,103.00
             735.09,106.92 734.39,108.57 738.00,111.00
             738.00,111.00 738.00,113.00 738.00,113.00
             734.50,115.34 735.05,117.05 735.00,121.00
             735.00,121.00 726.86,113.91 726.86,113.91
             726.86,113.91 724.77,110.00 724.77,110.00
             721.71,105.12 717.45,100.81 712.00,99.00
             712.00,99.00 712.00,101.00 712.00,101.00
             712.00,101.00 709.00,100.00 709.00,100.00
             709.00,100.00 709.00,102.00 709.00,102.00
             709.00,102.00 707.00,102.00 707.00,102.00
             704.49,95.90 701.17,94.46 695.00,93.00
             695.00,93.00 697.00,98.00 697.00,98.00
             697.00,98.00 700.00,97.00 700.00,97.00
             692.36,104.31 678.63,91.50 674.00,104.00
             674.00,104.00 659.00,106.00 659.00,106.00
             658.94,100.27 652.98,100.55 648.00,99.00
             648.00,99.00 648.00,102.00 648.00,102.00
             635.82,103.06 638.11,103.83 627.00,109.00
             627.00,109.00 624.00,107.00 624.00,107.00
             624.00,107.00 624.00,104.00 624.00,104.00
             624.00,104.00 619.00,108.00 619.00,108.00
             619.00,108.00 624.00,107.00 624.00,107.00
             624.00,107.00 614.00,116.00 614.00,116.00
             614.00,116.00 613.00,115.00 613.00,115.00
             613.00,115.00 612.00,115.00 612.00,115.00
             612.00,115.00 613.00,117.00 613.00,117.00
             613.00,117.00 612.00,118.00 612.00,118.00
             607.55,114.92 607.92,115.21 603.00,117.00
             600.15,126.24 594.03,122.05 592.00,131.00
             592.00,131.00 590.00,129.00 590.00,129.00
             590.00,129.00 588.00,131.00 588.00,131.00
             588.00,131.00 588.00,128.00 588.00,128.00
             588.00,128.00 586.00,130.00 586.00,130.00
             586.00,130.00 583.00,129.00 583.00,129.00
             583.00,129.00 583.00,132.00 583.00,132.00
             583.00,132.00 587.00,131.00 587.00,131.00
             588.27,135.65 589.61,135.41 587.00,140.00
             587.00,140.00 588.00,135.00 588.00,135.00
             588.00,135.00 585.00,140.00 585.00,140.00
             585.00,140.00 582.00,139.00 582.00,139.00
             582.00,139.00 581.00,146.00 581.00,146.00
             581.00,146.00 576.18,141.00 576.18,141.00
             572.36,136.74 572.07,134.31 566.00,136.00
             565.19,130.65 562.86,126.56 558.00,124.00
             559.64,130.28 561.66,132.11 558.00,138.00
             558.00,138.00 558.00,135.00 558.00,135.00
             558.00,135.00 541.83,136.31 541.83,136.31
             541.83,136.31 536.00,137.77 536.00,137.77
             536.00,137.77 529.00,137.77 529.00,137.77
             529.00,137.77 529.00,135.00 529.00,135.00
             529.00,135.00 502.00,139.00 502.00,139.00
             502.00,139.00 503.00,126.00 503.00,126.00
             499.48,127.20 499.44,127.61 497.88,131.00
             497.88,131.00 497.88,111.15 497.88,111.15
             497.88,111.15 497.08,100.00 497.08,100.00
             497.08,100.00 500.75,80.00 500.75,80.00
             500.75,80.00 506.28,69.00 506.28,69.00
             506.28,69.00 508.95,51.00 508.95,51.00
             508.95,51.00 507.48,34.00 507.48,34.00
             507.48,34.00 504.00,21.00 504.00,21.00
             504.00,21.00 495.00,8.00 495.00,8.00
             495.00,8.00 493.00,8.00 493.00,8.00
             493.00,8.00 493.00,10.00 493.00,10.00
             489.79,3.33 485.01,2.16 478.00,2.00
             478.00,2.00 478.00,6.00 478.00,6.00
             478.00,6.00 474.00,3.00 474.00,3.00
             474.00,3.00 472.00,8.00 472.00,8.00
             466.94,7.25 467.05,9.85 468.00,14.00
             468.00,14.00 466.10,25.00 466.10,25.00
             466.10,25.00 466.10,37.00 466.10,37.00
             466.10,37.00 463.00,57.00 463.00,57.00
             465.60,60.66 464.59,63.64 464.48,68.00
             464.28,76.16 462.96,81.89 465.00,90.00
             461.04,93.41 461.28,102.99 462.22,107.83
             462.22,107.83 463.18,112.17 463.18,112.17
             463.18,112.17 463.18,122.00 463.18,122.00
             463.50,129.29 464.98,129.84 463.18,138.00
             463.18,138.00 465.00,137.00 465.00,137.00
             463.61,147.52 462.85,156.44 464.05,167.00
             464.59,171.75 465.10,177.10 468.00,181.00
             468.00,181.00 466.00,182.00 466.00,182.00
             466.00,182.00 463.00,180.00 463.00,180.00
             464.15,185.10 470.08,189.18 474.58,191.68
             478.15,193.66 478.81,191.73 481.00,196.00
             481.00,196.00 486.00,194.20 486.00,194.20
             493.00,200.87 506.19,194.64 507.83,194.20
             509.64,194.15 512.21,195.43 514.00,196.00
             514.00,196.00 514.00,193.00 514.00,193.00
             518.18,197.16 518.36,196.39 524.00,196.00
             524.00,196.00 523.00,198.00 523.00,198.00
             523.00,198.00 522.00,198.00 522.00,198.00
             522.00,198.00 522.00,200.00 522.00,200.00
             522.00,200.00 526.00,203.00 526.00,203.00
             518.18,201.53 516.17,200.10 508.00,201.00
             508.00,201.00 509.00,198.00 509.00,198.00
             509.00,198.00 501.00,202.00 501.00,202.00
             501.00,202.00 502.00,199.00 502.00,199.00
             502.00,199.00 490.27,201.90 490.27,201.90
             490.27,201.90 475.00,201.90 475.00,201.90
             475.00,201.90 465.00,203.03 465.00,203.03
             465.00,203.03 451.57,203.96 451.57,203.96
             451.57,203.96 448.25,194.01 448.25,194.01
             448.25,194.01 444.84,183.42 444.84,183.42
             444.84,183.42 443.00,167.00 443.00,167.00
             443.00,167.00 441.00,167.00 441.00,167.00
             441.00,167.00 441.00,172.00 441.00,172.00
             441.00,172.00 439.00,167.00 439.00,167.00
             435.42,160.52 441.63,154.18 437.00,150.00
             437.00,150.00 441.00,133.00 441.00,133.00
             441.00,133.00 441.00,144.00 441.00,144.00
             441.00,144.00 443.00,144.00 443.00,144.00
             443.46,138.41 443.72,131.95 449.00,129.00
             451.09,117.89 453.49,100.08 451.68,89.00
             451.68,89.00 449.32,80.00 449.32,80.00
             449.32,80.00 448.77,73.00 448.77,73.00
             448.48,71.15 443.55,58.96 442.48,57.00
             439.24,51.02 432.49,41.86 425.99,39.40
             421.59,37.75 416.73,37.86 414.00,42.00
             414.00,42.00 410.00,41.00 410.00,41.00
             410.00,41.00 407.00,46.00 407.00,46.00
             407.00,46.00 407.00,42.00 407.00,42.00
             407.00,42.00 405.00,42.00 405.00,42.00
             405.00,42.00 407.00,47.00 407.00,47.00
             407.00,47.00 406.00,51.00 406.00,51.00
             411.45,58.00 408.10,65.14 408.53,73.00
             408.64,75.63 408.97,76.12 408.53,79.00
             407.75,84.43 405.70,84.40 407.00,90.00
             407.00,90.00 405.00,90.00 405.00,90.00
             405.00,90.00 406.00,94.00 406.00,94.00
             406.00,94.00 410.00,91.00 410.00,91.00
             408.63,96.63 409.39,97.50 408.73,100.91
             407.74,106.02 404.06,108.25 408.00,119.00
             404.50,121.72 405.04,124.88 405.00,129.00
             405.00,129.00 407.00,129.00 407.00,129.00
             407.00,129.00 407.00,124.00 407.00,124.00
             407.00,124.00 407.00,134.00 407.00,134.00
             407.00,134.00 405.00,133.00 405.00,133.00
             405.00,133.00 404.00,141.00 404.00,141.00
             404.00,141.00 407.00,140.00 407.00,140.00
             407.00,140.00 407.00,145.00 407.00,145.00
             407.00,145.00 404.00,144.00 404.00,144.00
             404.00,144.00 402.00,152.00 402.00,152.00
             402.00,152.00 405.00,151.00 405.00,151.00
             406.61,155.99 407.47,157.11 405.00,162.00
             405.00,162.00 405.00,159.00 405.00,159.00
             405.00,159.00 403.00,159.00 403.00,159.00
             403.00,159.00 401.62,176.00 401.62,176.00
             401.62,176.00 404.00,191.00 404.00,191.00
             404.00,191.00 406.00,189.00 406.00,189.00
             407.64,197.01 403.89,202.74 409.00,215.00
             409.00,215.00 406.00,216.00 406.00,216.00
             408.01,221.32 410.28,235.71 411.26,242.00
             411.82,245.55 411.21,249.79 413.58,252.73
             417.45,257.52 429.97,260.19 436.00,259.96
             436.00,259.96 455.00,257.55 455.00,257.55
             455.00,257.55 463.00,255.37 463.00,255.37
             463.00,255.37 485.00,250.62 485.00,250.62
             493.99,248.31 499.28,245.79 509.00,245.00
             509.00,245.00 507.00,249.00 507.00,249.00
             507.00,249.00 519.09,247.30 519.09,247.30
             519.09,247.30 524.72,245.15 524.72,245.15
             524.72,245.15 536.00,245.15 536.00,245.15
             536.00,245.15 535.00,242.00 535.00,242.00
             535.00,242.00 546.00,244.00 546.00,244.00
             546.00,244.00 548.00,235.00 548.00,235.00
             548.00,235.00 546.00,235.00 546.00,235.00
             546.00,235.00 546.00,233.00 546.00,233.00
             549.08,232.46 551.78,231.64 548.00,229.00
             548.00,229.00 549.00,225.00 549.00,225.00
             549.00,225.00 557.00,225.00 557.00,225.00
             562.26,229.67 562.61,225.58 563.00,221.00
             559.10,220.88 558.52,221.00 558.00,217.00
             558.00,217.00 560.00,218.00 560.00,218.00
             559.25,213.53 558.30,213.10 554.00,212.00
             554.00,212.00 555.00,209.00 555.00,209.00
             547.29,203.85 546.18,206.22 541.00,204.64
             536.75,203.34 537.14,201.80 532.00,202.00
             532.00,202.00 535.00,204.00 535.00,204.00
             535.00,204.00 527.00,205.00 527.00,205.00
             527.00,205.00 530.00,204.00 530.00,204.00
             530.00,204.00 526.00,197.00 526.00,197.00
             528.57,196.79 531.32,196.59 533.72,195.57
             541.70,192.19 550.50,181.47 565.00,183.00
             565.00,183.00 565.00,180.00 565.00,180.00
             565.00,180.00 567.00,180.00 567.00,180.00
             567.00,180.00 573.00,204.00 573.00,204.00
             573.00,204.00 576.00,203.00 576.00,203.00
             576.00,203.00 579.00,209.00 579.00,209.00
             579.00,209.00 577.00,211.00 577.00,211.00
             577.00,211.00 580.00,209.00 580.00,209.00
             580.00,209.00 589.79,219.61 589.79,219.61
             589.79,219.61 593.54,224.11 593.54,224.11
             593.54,224.11 602.00,231.00 602.00,231.00
             602.00,231.00 599.00,231.00 599.00,231.00
             599.00,231.00 603.00,234.00 603.00,234.00
             602.68,238.14 603.32,238.35 607.00,240.00
             607.00,240.00 606.00,243.00 606.00,243.00
             606.00,243.00 613.00,241.00 613.00,241.00
             613.00,241.00 621.00,247.00 621.00,247.00
             621.00,247.00 619.00,249.00 619.00,249.00
             621.54,251.93 624.70,254.41 628.00,251.00
             631.35,255.65 632.06,254.26 637.00,256.39
             655.61,264.44 664.89,259.13 683.00,255.00
             683.00,255.00 681.00,259.00 681.00,259.00
             693.23,258.08 702.39,251.72 713.00,246.53
             718.65,243.76 724.70,241.99 730.00,238.37
             730.00,238.37 738.28,231.68 738.28,231.68
             738.28,231.68 744.56,228.14 744.56,228.14
             749.20,224.76 747.22,223.69 754.00,221.00
             754.83,224.15 755.98,232.46 757.87,234.40
             759.84,236.42 761.91,235.19 765.95,236.84
             768.29,237.80 769.49,239.08 772.09,239.71
             782.02,242.09 791.75,238.89 801.72,238.81
             801.72,238.81 817.00,237.99 817.00,237.99
             817.00,237.99 831.97,237.99 831.97,237.99
             831.97,237.99 849.00,236.47 849.00,236.47
             849.00,236.47 857.99,237.76 857.99,237.76
             857.99,237.76 866.09,237.76 866.09,237.76
             866.09,237.76 873.83,237.76 873.83,237.76
             878.46,237.84 889.56,239.36 894.00,240.54
             894.00,240.54 900.00,242.42 900.00,242.42
             900.00,242.42 909.00,243.86 909.00,243.86
             909.00,243.86 919.00,246.86 919.00,246.86
             919.00,246.86 937.00,252.49 937.00,252.49
             941.89,253.72 947.92,253.94 952.00,257.00
             952.00,257.00 965.00,255.00 965.00,255.00
             960.59,261.60 969.21,257.89 972.00,259.00
             973.89,258.52 977.03,257.37 978.87,257.80
             980.96,258.29 982.12,260.33 983.45,260.68
             986.33,261.44 988.57,257.92 990.00,256.00
             994.64,257.16 995.13,256.72 999.00,254.00
             999.00,254.00 997.00,249.00 997.00,249.00
             997.00,249.00 1000.00,250.00 1000.00,250.00
             1000.00,250.00 998.00,246.00 998.00,246.00
             998.00,246.00 997.00,241.00 997.00,241.00
             997.00,241.00 999.00,240.00 999.00,240.00
             999.00,240.00 997.00,232.00 997.00,232.00
             997.00,232.00 994.00,233.00 994.00,233.00
             994.00,233.00 990.00,227.00 990.00,227.00
             990.00,227.00 994.00,227.00 994.00,227.00
             991.56,218.73 986.62,215.72 981.00,210.00
             981.00,210.00 979.00,211.00 979.00,211.00
             969.26,198.20 942.68,202.44 929.00,206.00
             922.65,201.33 918.56,207.38 912.00,202.00
             912.00,202.00 910.00,203.00 910.00,203.00
             910.00,203.00 895.00,198.54 895.00,198.54
             895.00,198.54 887.00,200.00 887.00,200.00
             883.78,196.72 882.44,196.64 878.00,196.00
             878.00,196.00 879.00,194.00 879.00,194.00
             879.00,194.00 873.04,195.42 873.04,195.42
             873.04,195.42 855.00,192.00 855.00,192.00
             855.00,192.00 858.00,188.00 858.00,188.00
             853.78,188.76 848.91,190.16 845.00,188.00
             830.54,189.31 819.93,188.38 806.00,184.00
             813.41,180.99 811.35,181.72 816.44,176.28
             818.48,174.11 819.42,173.68 821.00,171.00
             821.00,171.00 816.00,172.00 816.00,172.00
             816.00,172.00 832.00,157.00 832.00,157.00
             832.00,157.00 826.00,159.00 826.00,159.00
             829.12,155.52 833.23,153.03 838.00,153.00
             838.00,153.00 842.00,150.00 842.00,150.00
             842.00,150.00 841.00,147.00 841.00,147.00
             841.00,147.00 844.00,146.00 844.00,146.00
             844.00,146.00 841.71,144.18 841.71,144.18
             841.71,144.18 825.00,153.00 825.00,153.00
             825.00,153.00 843.00,140.00 843.00,140.00
             843.00,140.00 844.00,142.00 844.00,142.00
             844.00,142.00 858.00,131.00 858.00,131.00
             858.00,131.00 867.00,128.00 867.00,128.00
             867.00,128.00 865.00,126.00 865.00,126.00
             865.00,126.00 867.00,121.00 867.00,121.00
             867.00,121.00 862.00,120.00 862.00,120.00
             862.00,120.00 875.00,116.00 875.00,116.00
             875.00,116.00 875.00,118.00 875.00,118.00
             875.00,118.00 872.00,118.00 872.00,118.00
             872.00,118.00 872.00,120.00 872.00,120.00
             874.24,119.30 877.19,118.62 875.00,116.00
             875.00,116.00 882.17,110.80 882.17,110.80
             887.27,107.71 891.87,106.60 895.00,101.00
             890.75,101.67 888.54,101.69 887.00,106.00
             887.00,106.00 881.00,106.00 881.00,106.00
             887.68,99.87 885.57,100.80 894.00,97.00
             894.00,97.00 896.00,102.00 896.00,102.00
             896.00,102.00 898.00,102.00 898.00,102.00
             898.00,102.00 901.00,97.00 901.00,97.00
             901.00,97.00 898.00,97.00 898.00,97.00
             898.00,97.00 911.00,92.00 911.00,92.00
             911.00,92.00 909.00,90.00 909.00,90.00
             918.68,84.15 919.37,79.97 932.00,77.00
             932.00,77.00 941.96,67.68 941.96,67.68
             941.96,67.68 956.00,54.67 956.00,54.67
             956.00,54.67 965.98,46.87 965.98,46.87
             965.98,46.87 965.98,37.00 965.98,37.00
             959.28,34.86 962.38,32.62 959.38,28.34
             956.40,24.08 947.80,14.60 943.00,13.00
             943.00,13.00 944.00,16.00 944.00,16.00
             944.00,16.00 941.00,17.00 941.00,17.00
             941.00,17.00 938.00,12.00 938.00,12.00
             938.00,12.00 940.00,12.00 940.00,12.00
             940.00,12.00 937.78,10.13 937.78,10.13
             937.78,10.13 923.00,10.13 923.00,10.13
             923.00,10.13 924.00,12.00 924.00,12.00
             924.00,12.00 907.00,16.00 907.00,16.00
             907.00,16.00 907.00,14.00 907.00,14.00
             907.00,14.00 904.00,16.00 904.00,16.00
             904.00,16.00 903.00,15.00 903.00,15.00
             895.51,20.69 885.30,19.39 876.42,20.38
             876.42,20.38 864.00,23.92 864.00,23.92
             858.65,24.83 853.23,24.40 849.00,28.00
             849.00,28.00 848.00,26.00 848.00,26.00
             848.00,26.00 836.00,28.00 836.00,28.00
             836.00,28.00 837.00,25.00 837.00,25.00
             837.00,25.00 828.00,26.68 828.00,26.68
             828.00,26.68 817.72,27.58 817.72,27.58
             817.72,27.58 804.00,30.74 804.00,30.74
             804.00,30.74 785.00,32.00 785.00,32.00
             774.78,32.12 768.97,35.20 761.00,27.00
             761.00,27.00 758.00,28.00 758.00,28.00
             758.00,28.00 753.00,18.00 753.00,18.00
             753.00,18.00 751.00,18.00 751.00,18.00
             751.00,18.00 750.00,20.00 750.00,20.00
             750.00,20.00 749.00,15.00 749.00,15.00
             740.33,8.37 736.14,7.87 726.00,5.83
             719.46,4.52 720.26,4.07 713.00,4.00
             713.00,4.00 715.00,1.00 715.00,1.00
             715.00,1.00 712.00,2.00 712.00,2.00
             709.63,-0.64 707.88,0.23 704.58,0.17
             698.16,0.06 691.31,-0.12 685.00,1.00 Z
           M 484.00,3.00
           C 484.00,3.00 484.00,4.00 484.00,4.00
             484.00,4.00 483.00,3.00 483.00,3.00
             483.00,3.00 484.00,3.00 484.00,3.00 Z
           M 691.00,3.00
           C 691.00,3.00 693.00,5.00 693.00,5.00
             693.00,5.00 694.00,5.00 694.00,5.00
             694.00,5.00 685.00,7.00 685.00,7.00
             685.00,7.00 691.00,3.00 691.00,3.00 Z
           M 708.00,5.00
           C 708.00,5.00 699.00,4.00 699.00,4.00
             702.67,2.55 704.81,2.65 708.00,5.00 Z
           M 635.00,13.00
           C 635.00,13.00 638.00,10.00 638.00,10.00
             638.00,10.00 635.00,13.00 635.00,13.00 Z
           M 929.00,11.00
           C 929.00,11.00 929.00,12.00 929.00,12.00
             929.00,12.00 928.00,11.00 928.00,11.00
             928.00,11.00 929.00,11.00 929.00,11.00 Z
           M 928.00,12.00
           C 928.00,12.00 928.00,13.00 928.00,13.00
             928.00,13.00 927.00,12.00 927.00,12.00
             927.00,12.00 928.00,12.00 928.00,12.00 Z
           M 640.00,15.00
           C 640.00,15.00 645.00,12.00 645.00,12.00
             645.00,12.00 640.00,15.00 640.00,15.00 Z
           M 678.00,13.00
           C 678.00,13.00 678.00,14.00 678.00,14.00
             678.00,14.00 677.00,13.00 677.00,13.00
             677.00,13.00 678.00,13.00 678.00,13.00 Z
           M 633.00,14.00
           C 633.00,14.00 633.00,18.00 633.00,18.00
             633.00,18.00 630.00,18.00 630.00,18.00
             630.00,18.00 630.00,20.00 630.00,20.00
             633.68,19.29 634.90,19.23 637.00,16.00
             637.00,16.00 633.00,14.00 633.00,14.00 Z
           M 651.00,21.00
           C 651.00,21.00 646.00,23.00 646.00,23.00
             646.00,23.00 651.00,21.00 651.00,21.00 Z
           M 645.00,23.00
           C 645.00,23.00 641.00,25.00 641.00,25.00
             641.00,25.00 641.00,24.00 641.00,24.00
             641.00,24.00 643.00,22.00 643.00,22.00
             643.00,22.00 645.00,23.00 645.00,23.00 Z
           M 636.00,26.00
           C 636.00,26.00 635.00,28.00 635.00,28.00
             635.00,28.00 633.00,27.00 633.00,27.00
             633.00,27.00 633.00,26.00 633.00,26.00
             633.00,26.00 636.00,26.00 636.00,26.00 Z
           M 633.00,27.00
           C 633.00,27.00 627.00,31.00 627.00,31.00
             627.00,31.00 633.00,27.00 633.00,27.00 Z
           M 824.00,29.00
           C 824.00,29.00 824.00,30.00 824.00,30.00
             824.00,30.00 823.00,29.00 823.00,29.00
             823.00,29.00 824.00,29.00 824.00,29.00 Z
           M 760.00,30.00
           C 760.00,30.00 760.00,31.00 760.00,31.00
             760.00,31.00 759.00,30.00 759.00,30.00
             759.00,30.00 760.00,30.00 760.00,30.00 Z
           M 613.00,31.00
           C 613.00,31.00 613.00,32.00 613.00,32.00
             613.00,32.00 612.00,31.00 612.00,31.00
             612.00,31.00 613.00,31.00 613.00,31.00 Z
           M 761.00,31.00
           C 761.00,31.00 761.00,32.00 761.00,32.00
             761.00,32.00 760.00,31.00 760.00,31.00
             760.00,31.00 761.00,31.00 761.00,31.00 Z
           M 585.00,43.00
           C 585.00,43.00 585.00,44.00 585.00,44.00
             585.00,44.00 584.00,43.00 584.00,43.00
             584.00,43.00 585.00,43.00 585.00,43.00 Z
           M 372.00,50.00
           C 372.00,50.00 372.00,55.00 372.00,55.00
             372.00,55.00 368.00,53.00 368.00,53.00
             368.00,53.00 364.81,59.95 364.81,59.95
             364.81,59.95 368.00,72.00 368.00,72.00
             368.00,72.00 368.00,88.00 368.00,88.00
             362.34,77.54 358.74,71.41 350.00,63.04
             346.33,59.53 343.27,56.00 338.00,56.00
             338.00,56.00 336.00,54.00 336.00,54.00
             336.00,54.00 336.00,57.00 336.00,57.00
             336.00,57.00 335.00,53.00 335.00,53.00
             335.00,53.00 331.00,55.00 331.00,55.00
             331.00,55.00 331.00,52.00 331.00,52.00
             331.00,52.00 329.00,53.00 329.00,53.00
             329.00,53.00 319.00,49.00 319.00,49.00
             319.00,49.00 315.00,53.00 315.00,53.00
             315.00,53.00 311.62,49.57 311.62,49.57
             311.62,49.57 285.00,49.00 285.00,49.00
             281.01,52.07 277.97,50.91 273.00,51.81
             273.00,51.81 257.00,54.71 257.00,54.71
             248.84,56.57 246.86,59.15 238.00,57.00
             234.36,64.87 235.56,79.84 238.79,87.83
             238.79,87.83 245.00,100.00 245.00,100.00
             245.00,100.00 251.27,93.84 251.27,93.84
             251.27,93.84 260.00,89.00 260.00,89.00
             260.00,89.00 261.42,123.98 261.42,123.98
             260.97,128.52 257.45,128.32 254.00,130.00
             253.99,127.84 254.32,118.98 250.00,123.00
             245.19,123.05 246.76,125.81 244.00,131.00
             244.00,131.00 245.00,127.84 245.00,127.84
             243.70,128.02 242.65,128.27 241.37,127.84
             238.42,126.32 233.63,117.05 231.41,114.00
             223.77,103.51 220.80,105.54 214.97,102.81
             208.54,99.80 209.89,97.15 202.00,99.00
             202.00,99.00 202.00,97.00 202.00,97.00
             202.00,97.00 197.00,99.00 197.00,99.00
             197.00,99.00 197.00,96.00 197.00,96.00
             200.49,94.73 200.33,94.34 199.00,91.00
             199.00,91.00 193.00,91.00 193.00,91.00
             193.00,91.00 191.00,95.00 191.00,95.00
             191.00,95.00 191.00,88.00 191.00,88.00
             191.00,88.00 182.00,91.00 182.00,91.00
             182.00,91.00 181.00,87.00 181.00,87.00
             181.00,87.00 177.00,91.00 177.00,91.00
             174.42,87.53 174.30,87.23 170.00,88.00
             170.00,88.00 171.00,91.00 171.00,91.00
             171.00,91.00 168.00,99.00 168.00,99.00
             168.00,99.00 165.00,98.00 165.00,98.00
             165.00,98.00 163.00,107.00 163.00,107.00
             163.00,107.00 160.00,106.00 160.00,106.00
             160.00,106.00 159.00,114.00 159.00,114.00
             159.00,114.00 155.00,113.00 155.00,113.00
             155.00,113.00 157.00,116.00 157.00,116.00
             157.00,116.00 155.00,120.00 155.00,120.00
             155.00,120.00 154.00,119.00 154.00,119.00
             154.00,119.00 151.00,130.00 151.00,130.00
             151.00,130.00 148.00,129.00 148.00,129.00
             148.00,129.00 141.00,150.00 141.00,150.00
             141.00,150.00 137.00,141.00 137.00,141.00
             137.00,141.00 133.00,141.00 133.00,141.00
             133.00,141.00 133.00,144.00 133.00,144.00
             133.00,144.00 125.00,143.00 125.00,143.00
             125.00,143.00 122.00,147.00 122.00,147.00
             122.00,147.00 123.00,144.00 123.00,144.00
             121.03,144.64 119.04,144.90 121.00,147.00
             121.00,147.00 118.00,149.00 118.00,149.00
             118.00,149.00 114.00,147.00 114.00,147.00
             114.00,147.00 115.00,150.00 115.00,150.00
             115.00,150.00 111.00,153.00 111.00,153.00
             109.79,149.70 109.45,149.73 106.00,150.00
             106.00,150.00 107.00,152.00 107.00,152.00
             102.39,153.51 97.67,153.75 95.00,158.00
             95.00,158.00 93.00,158.00 93.00,158.00
             93.00,158.00 93.00,156.00 93.00,156.00
             93.00,156.00 91.00,160.00 91.00,160.00
             91.00,160.00 90.00,161.00 90.00,161.00
             90.00,161.00 88.00,160.00 88.00,160.00
             88.00,160.00 85.00,162.00 85.00,162.00
             85.00,162.00 85.00,159.00 85.00,159.00
             85.00,159.00 82.00,159.00 82.00,159.00
             82.00,159.00 82.00,162.00 82.00,162.00
             82.00,162.00 81.00,160.00 81.00,160.00
             81.00,160.00 79.00,160.00 79.00,160.00
             74.43,165.90 73.18,164.20 68.11,168.89
             63.76,172.91 58.11,182.46 56.00,188.00
             56.00,188.00 61.00,186.00 61.00,186.00
             61.00,186.00 61.00,188.00 61.00,188.00
             61.00,188.00 63.00,188.00 63.00,188.00
             63.00,188.00 63.00,186.00 63.00,186.00
             63.00,186.00 75.00,181.00 75.00,181.00
             70.93,184.80 69.86,185.67 68.00,191.00
             68.00,191.00 84.99,188.18 84.99,188.18
             84.99,188.18 98.00,186.00 98.00,186.00
             99.76,187.62 99.88,186.79 101.00,185.00
             109.89,190.32 120.22,189.04 130.00,187.00
             130.00,187.00 126.49,198.00 126.49,198.00
             126.49,198.00 109.00,212.00 109.00,212.00
             104.50,211.79 103.10,212.85 100.00,216.00
             100.00,216.00 97.00,215.00 97.00,215.00
             97.00,215.00 82.00,222.00 82.00,222.00
             77.69,220.99 77.06,221.33 73.00,223.00
             73.00,223.00 73.00,221.00 73.00,221.00
             59.33,223.45 46.91,222.03 34.00,217.12
             23.74,213.21 18.50,207.16 21.78,196.00
             23.96,188.61 33.28,174.51 38.51,168.72
             42.18,164.65 47.63,160.69 50.00,156.00
             50.00,156.00 47.00,156.00 47.00,156.00
             47.00,156.00 62.91,143.20 62.91,143.20
             62.91,143.20 69.00,137.89 69.00,137.89
             74.66,134.00 77.39,134.88 83.09,132.83
             83.09,132.83 101.72,125.99 101.72,125.99
             103.76,125.55 115.26,124.92 117.00,125.28
             125.33,126.97 127.97,132.59 138.00,126.00
             137.18,118.57 139.58,120.46 139.74,114.99
             140.07,103.57 135.33,95.33 129.76,85.83
             128.01,82.85 124.87,77.34 121.54,75.82
             121.54,75.82 119.83,75.82 119.83,75.82
             123.65,75.43 103.24,78.28 107.15,77.31
             104.99,77.84 104.61,78.51 106.00,80.00
             99.35,82.49 97.14,83.76 90.00,83.00
             90.00,83.00 90.00,86.00 90.00,86.00
             90.00,86.00 74.00,92.00 74.00,92.00
             74.00,92.00 74.00,95.00 74.00,95.00
             67.01,96.31 61.99,100.40 56.00,104.00
             53.32,101.02 52.14,103.14 51.00,106.00
             51.00,106.00 56.00,104.00 56.00,104.00
             56.00,104.00 52.00,110.00 52.00,110.00
             52.00,110.00 49.00,109.00 49.00,109.00
             49.00,109.00 40.00,116.00 40.00,116.00
             40.00,116.00 43.00,111.00 43.00,111.00
             43.00,111.00 35.00,117.00 35.00,117.00
             35.00,117.00 33.00,116.00 33.00,116.00
             33.00,116.00 28.00,122.00 28.00,122.00
             28.00,122.00 29.00,122.00 29.00,122.00
             29.00,122.00 30.00,124.00 30.00,124.00
             30.00,124.00 32.00,123.00 32.00,123.00
             32.00,123.00 29.00,126.00 29.00,126.00
             29.00,126.00 29.00,124.00 29.00,124.00
             29.00,124.00 28.00,124.00 28.00,124.00
             23.60,127.50 19.48,132.24 16.25,136.83
             14.43,139.41 12.39,141.42 15.00,144.00
             15.00,144.00 15.00,146.00 15.00,146.00
             5.61,151.17 9.55,157.98 4.00,164.00
             4.47,171.61 2.41,173.38 1.12,180.00
             1.12,180.00 1.12,189.00 1.12,189.00
             0.28,198.21 -1.14,208.01 1.75,217.00
             1.75,217.00 7.46,230.94 7.46,230.94
             8.32,233.01 8.95,234.87 11.00,233.00
             13.78,238.00 14.93,241.08 21.00,242.00
             21.00,242.00 20.00,245.00 20.00,245.00
             20.00,245.00 26.00,245.00 26.00,245.00
             26.00,245.00 27.69,247.12 27.69,247.12
             27.69,247.12 41.00,254.16 41.00,254.16
             41.00,254.16 49.00,258.00 49.00,258.00
             52.46,257.49 53.02,257.01 56.00,259.00
             56.00,259.00 59.00,257.00 59.00,257.00
             59.00,257.00 69.00,259.00 69.00,259.00
             69.00,259.00 68.00,261.00 68.00,261.00
             76.19,260.14 93.25,259.37 99.00,254.00
             99.00,254.00 101.00,255.00 101.00,255.00
             105.51,252.15 109.30,251.63 112.00,247.00
             112.00,247.00 114.00,248.00 114.00,248.00
             116.92,242.54 124.94,238.09 125.00,232.00
             128.44,230.18 131.48,229.15 129.00,225.00
             135.77,216.37 136.38,219.34 141.00,208.00
             141.00,208.00 147.00,207.00 147.00,207.00
             147.00,207.00 150.00,212.00 150.00,212.00
             150.00,212.00 152.00,218.00 152.00,218.00
             152.00,218.00 153.00,217.00 153.00,217.00
             153.00,217.00 158.00,224.00 158.00,224.00
             158.00,224.00 161.00,223.00 161.00,223.00
             161.00,223.00 169.00,228.16 169.00,228.16
             173.73,227.68 173.68,228.00 178.00,228.16
             185.59,228.88 186.08,226.08 191.04,223.55
             191.04,223.55 200.00,219.37 200.00,219.37
             207.14,215.06 212.48,208.51 217.50,202.00
             227.66,188.82 241.48,166.85 243.00,150.00
             243.00,150.00 246.00,161.00 246.00,161.00
             246.00,161.00 249.28,168.00 249.28,168.00
             252.43,174.49 254.51,174.06 254.00,182.00
             254.00,182.00 256.00,182.00 256.00,182.00
             256.00,182.00 256.00,179.00 256.00,179.00
             256.00,179.00 261.00,177.00 261.00,177.00
             261.00,177.00 258.25,191.00 258.25,191.00
             258.25,191.00 257.39,200.00 257.39,200.00
             256.58,204.60 254.77,208.71 259.00,212.00
             257.80,215.32 255.06,219.35 258.00,222.00
             258.00,222.00 258.00,228.00 258.00,228.00
             253.83,231.24 254.89,237.51 254.16,242.28
             254.16,242.28 252.48,247.91 252.48,247.91
             252.23,249.35 251.54,253.19 252.48,254.45
             253.61,256.31 256.28,255.37 258.00,255.00
             258.00,255.00 255.00,260.00 255.00,260.00
             255.00,260.00 262.00,256.00 262.00,256.00
             262.00,256.00 262.00,259.00 262.00,259.00
             262.00,259.00 279.96,260.74 279.96,260.74
             279.96,260.74 287.00,258.00 287.00,258.00
             287.00,258.00 286.00,253.00 286.00,253.00
             291.69,249.64 295.34,240.37 296.00,234.00
             290.37,230.99 291.52,228.53 290.56,223.00
             290.56,223.00 288.26,214.00 288.26,214.00
             287.45,209.12 288.66,207.84 287.00,201.00
             287.00,201.00 289.00,201.00 289.00,201.00
             289.00,201.00 291.00,178.00 291.00,178.00
             302.41,189.99 312.14,203.29 319.74,218.00
             323.96,226.16 327.86,239.37 336.00,244.00
             336.03,248.99 340.24,252.11 344.00,255.00
             344.00,255.00 342.00,256.00 342.00,256.00
             344.08,259.16 350.84,263.30 354.00,260.00
             354.00,260.00 357.00,262.00 357.00,262.00
             357.00,262.00 363.00,254.00 363.00,254.00
             363.00,254.00 362.00,248.00 362.00,248.00
             362.00,248.00 365.00,249.00 365.00,249.00
             365.99,245.27 368.23,239.94 365.00,237.00
             367.34,226.26 357.49,219.30 351.30,212.00
             351.30,212.00 327.95,176.58 327.95,176.58
             327.95,176.58 319.09,163.00 319.09,163.00
             318.06,161.54 315.94,159.06 316.00,157.21
             316.06,155.50 318.82,153.26 320.00,152.00
             326.10,154.34 324.83,151.96 330.00,150.86
             330.00,150.86 340.00,150.00 340.00,150.00
             340.00,150.00 339.00,154.00 339.00,154.00
             339.00,154.00 344.00,154.00 344.00,154.00
             344.00,154.00 342.00,148.00 342.00,148.00
             353.77,146.90 350.49,143.23 360.00,140.00
             361.92,135.82 363.11,135.28 367.00,133.00
             368.96,142.33 367.94,148.63 367.67,158.00
             367.67,158.00 367.67,165.00 367.67,165.00
             367.67,165.00 365.80,179.00 365.80,179.00
             365.80,179.00 365.80,186.00 365.80,186.00
             365.80,186.00 365.00,197.00 365.00,197.00
             365.00,197.00 367.00,197.00 367.00,197.00
             362.82,208.36 365.77,207.56 366.00,215.00
             366.00,215.00 365.00,226.00 365.00,226.00
             365.00,226.00 367.00,224.00 367.00,224.00
             370.19,228.60 378.35,235.80 380.00,226.00
             382.92,230.45 386.07,234.63 391.00,230.00
             391.00,230.00 392.00,231.00 392.00,231.00
             393.85,226.41 392.03,224.80 397.00,222.00
             397.00,222.00 394.34,205.00 394.34,205.00
             394.34,205.00 393.79,196.00 393.79,196.00
             393.79,196.00 391.97,188.00 391.97,188.00
             391.97,188.00 391.97,177.00 391.97,177.00
             391.97,177.00 391.00,159.00 391.00,159.00
             391.00,159.00 388.00,160.00 388.00,160.00
             388.00,160.00 388.00,151.00 388.00,151.00
             388.00,151.00 389.46,149.46 389.46,149.46
             389.46,149.46 391.31,129.54 391.31,129.54
             391.31,129.54 390.00,128.00 390.00,128.00
             390.00,128.00 390.90,105.17 390.90,105.17
             391.15,101.20 392.57,101.30 392.84,97.91
             392.84,97.91 391.79,88.00 391.79,88.00
             391.81,79.08 393.10,76.60 391.79,66.00
             390.80,60.66 389.89,50.03 385.39,46.69
             382.01,44.18 375.18,48.37 372.00,50.00 Z
           M 893.00,47.00
           C 893.00,47.00 893.00,48.00 893.00,48.00
             893.00,48.00 892.00,47.00 892.00,47.00
             892.00,47.00 893.00,47.00 893.00,47.00 Z
           M 892.00,48.00
           C 888.26,51.71 884.12,55.51 879.00,57.00
             879.00,57.00 878.00,63.00 878.00,63.00
             878.00,63.00 877.00,63.00 877.00,63.00
             877.00,63.00 877.00,61.00 877.00,61.00
             877.00,61.00 875.00,65.00 875.00,65.00
             875.00,65.00 864.00,73.00 864.00,73.00
             864.00,73.00 868.00,73.00 868.00,73.00
             868.00,73.00 863.00,82.00 863.00,82.00
             863.00,82.00 858.00,81.00 858.00,81.00
             858.00,81.00 858.00,83.00 858.00,83.00
             858.00,83.00 861.00,83.00 861.00,83.00
             861.00,83.00 855.00,89.00 855.00,89.00
             855.00,89.00 853.00,88.00 853.00,88.00
             851.42,90.69 841.88,98.13 839.00,100.29
             836.08,102.48 832.69,103.99 833.00,108.00
             833.00,108.00 834.00,110.00 834.00,110.00
             834.00,110.00 814.56,120.58 814.56,120.58
             814.56,120.58 812.00,125.00 812.00,125.00
             812.00,125.00 819.00,123.00 819.00,123.00
             816.92,127.20 814.34,129.52 810.03,131.47
             808.14,132.33 803.98,132.89 803.01,134.47
             801.85,136.37 803.86,136.66 805.00,137.00
             805.00,137.00 803.00,142.00 803.00,142.00
             803.00,142.00 791.00,142.00 791.00,142.00
             791.00,142.00 792.00,144.00 792.00,144.00
             792.00,144.00 793.00,144.00 793.00,144.00
             793.00,144.00 792.00,148.00 792.00,148.00
             792.00,148.00 788.00,147.00 788.00,147.00
             788.00,147.00 785.00,155.00 785.00,155.00
             785.00,155.00 784.00,155.00 784.00,155.00
             784.00,155.00 784.00,153.00 784.00,153.00
             779.66,155.59 779.06,157.48 774.00,157.00
             774.00,157.00 774.00,159.00 774.00,159.00
             774.00,159.00 770.00,157.00 770.00,157.00
             772.99,150.62 773.44,146.96 774.00,140.00
             774.00,140.00 772.00,141.00 772.00,141.00
             772.00,141.00 774.20,134.92 774.20,134.92
             774.50,132.68 773.16,131.60 773.00,127.96
             772.93,120.48 774.36,124.45 773.00,114.00
             772.25,109.20 773.86,107.75 769.00,105.00
             769.00,105.00 771.00,98.00 771.00,98.00
             771.00,98.00 774.00,99.00 774.00,99.00
             774.00,99.00 769.00,92.00 769.00,92.00
             769.00,92.00 773.00,81.00 773.00,81.00
             773.00,81.00 771.00,82.00 771.00,82.00
             771.00,82.00 771.00,83.00 771.00,83.00
             769.71,78.67 771.91,77.90 772.50,74.00
             773.08,70.14 771.47,65.84 769.00,63.00
             769.00,63.00 769.00,61.00 769.00,61.00
             769.00,61.00 772.00,60.00 772.00,60.00
             775.53,63.43 775.43,62.45 780.00,62.61
             794.88,63.15 790.41,62.00 803.00,60.17
             803.00,60.17 826.00,55.12 826.00,55.12
             826.00,55.12 847.00,52.43 847.00,52.43
             847.00,52.43 869.00,48.94 869.00,48.94
             873.21,48.38 873.40,48.97 877.00,48.94
             877.00,48.94 892.00,48.00 892.00,48.00 Z
           M 579.00,52.00
           C 579.00,52.00 579.00,53.00 579.00,53.00
             579.00,53.00 578.00,52.00 578.00,52.00
             578.00,52.00 579.00,52.00 579.00,52.00 Z
           M 303.00,75.00
           C 309.42,79.93 308.49,77.04 314.13,78.86
             319.13,80.46 321.30,83.32 327.00,80.00
             327.00,80.00 331.00,80.00 331.00,80.00
             331.00,80.00 332.00,85.00 332.00,85.00
             332.00,85.00 337.00,83.00 337.00,83.00
             337.00,83.00 336.00,87.00 336.00,87.00
             336.00,87.00 340.00,86.00 340.00,86.00
             340.00,86.00 353.00,98.00 353.00,98.00
             353.00,98.00 341.09,104.40 341.09,104.40
             341.09,104.40 335.87,107.79 335.87,107.79
             335.87,107.79 330.00,111.00 330.00,111.00
             330.00,111.00 325.00,109.00 325.00,109.00
             325.00,109.00 326.00,112.00 326.00,112.00
             326.00,112.00 325.00,113.00 325.00,113.00
             325.00,113.00 314.00,114.00 314.00,114.00
             314.00,114.00 314.00,117.00 314.00,117.00
             314.00,117.00 310.00,118.00 310.00,118.00
             310.00,118.00 310.00,115.00 310.00,115.00
             310.00,115.00 307.00,115.00 307.00,115.00
             307.00,115.00 308.00,118.00 308.00,118.00
             308.00,118.00 302.00,121.00 302.00,121.00
             302.00,121.00 298.00,122.00 298.00,122.00
             298.00,122.00 294.00,120.00 294.00,120.00
             294.00,120.00 295.00,124.00 295.00,124.00
             295.00,124.00 293.00,126.00 293.00,126.00
             293.00,126.00 291.00,125.00 291.00,125.00
             291.00,125.00 290.00,127.00 290.00,127.00
             290.00,127.00 289.00,127.00 289.00,127.00
             289.00,127.00 290.00,123.00 290.00,123.00
             290.00,123.00 284.00,124.00 284.00,124.00
             284.00,124.00 284.00,127.00 284.00,127.00
             284.00,127.00 282.00,126.00 282.00,126.00
             282.00,126.00 284.00,118.00 284.00,118.00
             284.00,118.00 281.00,119.00 281.00,119.00
             281.00,119.00 282.00,104.00 282.00,104.00
             282.00,104.00 281.00,83.00 281.00,83.00
             281.00,83.00 289.09,78.41 289.09,78.41
             289.09,78.41 303.00,75.00 303.00,75.00 Z
           M 326.00,75.00
           C 326.00,75.00 324.00,78.00 324.00,78.00
             324.00,78.00 326.00,75.00 326.00,75.00 Z
           M 871.00,75.00
           C 871.00,75.00 871.00,76.00 871.00,76.00
             871.00,76.00 870.00,75.00 870.00,75.00
             870.00,75.00 871.00,75.00 871.00,75.00 Z
           M 120.00,76.00
           C 120.00,76.00 120.00,77.00 120.00,77.00
             120.00,77.00 119.00,76.00 119.00,76.00
             119.00,76.00 120.00,76.00 120.00,76.00 Z
           M 321.00,78.00
           C 321.00,78.00 318.00,80.00 318.00,80.00
             318.00,80.00 319.00,77.00 319.00,77.00
             319.00,77.00 321.00,78.00 321.00,78.00 Z
           M 110.00,79.00
           C 110.00,79.00 110.00,80.00 110.00,80.00
             110.00,80.00 109.00,79.00 109.00,79.00
             109.00,79.00 110.00,79.00 110.00,79.00 Z
           M 284.00,79.00
           C 284.00,79.00 284.00,80.00 284.00,80.00
             284.00,80.00 283.00,79.00 283.00,79.00
             283.00,79.00 284.00,79.00 284.00,79.00 Z
           M 864.00,80.00
           C 864.00,80.00 864.00,81.00 864.00,81.00
             864.00,81.00 863.00,80.00 863.00,80.00
             863.00,80.00 864.00,80.00 864.00,80.00 Z
           M 912.00,81.00
           C 911.11,84.88 910.96,85.32 907.00,86.00
             907.00,86.00 912.00,81.00 912.00,81.00 Z
           M 899.00,86.00
           C 899.00,86.00 899.00,87.00 899.00,87.00
             899.00,87.00 898.00,86.00 898.00,86.00
             898.00,86.00 899.00,86.00 899.00,86.00 Z
           M 369.00,88.00
           C 369.00,88.00 369.00,89.00 369.00,89.00
             369.00,89.00 368.00,88.00 368.00,88.00
             368.00,88.00 369.00,88.00 369.00,88.00 Z
           M 880.00,88.00
           C 880.00,88.00 882.00,89.00 882.00,89.00
             880.54,89.42 879.92,89.81 880.00,88.00 Z
           M 665.00,89.00
           C 665.00,89.00 664.00,92.00 664.00,92.00
             664.00,92.00 667.00,93.00 667.00,93.00
             667.00,93.00 667.00,89.00 667.00,89.00
             667.00,89.00 665.00,89.00 665.00,89.00 Z
           M 690.00,89.00
           C 690.00,89.00 690.00,91.00 690.00,91.00
             690.00,91.00 693.00,91.00 693.00,91.00
             693.00,91.00 693.00,89.00 693.00,89.00
             693.00,89.00 690.00,89.00 690.00,89.00 Z
           M 696.00,89.00
           C 696.00,89.00 696.00,91.00 696.00,91.00
             696.00,91.00 699.00,91.00 699.00,91.00
             699.00,91.00 699.00,89.00 699.00,89.00
             699.00,89.00 696.00,89.00 696.00,89.00 Z
           M 903.00,90.00
           C 903.00,90.00 903.00,91.00 903.00,91.00
             903.00,91.00 902.00,90.00 902.00,90.00
             902.00,90.00 903.00,90.00 903.00,90.00 Z
           M 84.00,91.00
           C 84.00,91.00 84.00,92.00 84.00,92.00
             84.00,92.00 83.00,91.00 83.00,91.00
             83.00,91.00 84.00,91.00 84.00,91.00 Z
           M 668.00,90.00
           C 669.53,92.17 670.47,92.17 672.00,90.00
             672.00,90.00 668.00,90.00 668.00,90.00 Z
           M 902.00,91.00
           C 902.00,91.00 902.00,92.00 902.00,92.00
             902.00,92.00 901.00,91.00 901.00,91.00
             901.00,91.00 902.00,91.00 902.00,91.00 Z
           M 83.00,92.00
           C 83.00,92.00 79.00,94.00 79.00,94.00
             79.00,94.00 83.00,92.00 83.00,92.00 Z
           M 187.00,92.00
           C 187.00,92.00 187.00,93.00 187.00,93.00
             187.00,93.00 186.00,92.00 186.00,92.00
             186.00,92.00 187.00,92.00 187.00,92.00 Z
           M 631.00,103.00
           C 631.00,103.00 638.00,102.00 638.00,102.00
             641.12,98.74 642.45,97.84 647.00,98.00
             647.00,98.00 647.00,94.00 647.00,94.00
             647.00,94.00 659.00,97.00 659.00,97.00
             659.00,97.00 657.00,94.00 657.00,94.00
             657.00,94.00 659.00,91.00 659.00,91.00
             659.00,91.00 652.00,93.00 652.00,93.00
             649.44,90.59 647.52,92.55 644.83,93.99
             640.07,96.54 632.88,97.49 631.00,103.00 Z
           M 900.00,92.00
           C 900.00,92.00 900.00,93.00 900.00,93.00
             900.00,93.00 899.00,92.00 899.00,92.00
             899.00,92.00 900.00,92.00 900.00,92.00 Z
           M 172.00,93.00
           C 172.00,93.00 172.00,94.00 172.00,94.00
             172.00,94.00 171.00,93.00 171.00,93.00
             171.00,93.00 172.00,93.00 172.00,93.00 Z
           M 196.00,94.00
           C 196.00,94.00 196.00,95.00 196.00,95.00
             196.00,95.00 195.00,94.00 195.00,94.00
             195.00,94.00 196.00,94.00 196.00,94.00 Z
           M 392.00,94.00
           C 392.00,94.00 392.00,95.00 392.00,95.00
             392.00,95.00 391.00,94.00 391.00,94.00
             391.00,94.00 392.00,94.00 392.00,94.00 Z
           M 195.00,95.00
           C 195.00,95.00 195.00,96.00 195.00,96.00
             195.00,96.00 194.00,95.00 194.00,95.00
             194.00,95.00 195.00,95.00 195.00,95.00 Z
           M 705.00,94.00
           C 705.00,94.00 710.00,97.00 710.00,97.00
             710.00,97.00 705.00,94.00 705.00,94.00 Z
           M 466.00,97.00
           C 466.00,97.00 466.00,98.00 466.00,98.00
             466.00,98.00 465.00,97.00 465.00,97.00
             465.00,97.00 466.00,97.00 466.00,97.00 Z
           M 885.00,97.00
           C 885.00,97.00 882.00,99.00 882.00,99.00
             882.00,99.00 885.00,97.00 885.00,97.00 Z
           M 897.00,97.00
           C 897.00,97.00 897.00,98.00 897.00,98.00
             897.00,98.00 896.00,97.00 896.00,97.00
             896.00,97.00 897.00,97.00 897.00,97.00 Z
           M 625.00,97.00
           C 625.00,97.00 625.00,100.00 625.00,100.00
             625.00,100.00 629.00,97.00 629.00,97.00
             629.00,97.00 625.00,97.00 625.00,97.00 Z
           M 70.00,99.00
           C 70.00,99.00 69.00,102.00 69.00,102.00
             69.00,102.00 66.00,100.00 66.00,100.00
             66.00,100.00 70.00,99.00 70.00,99.00 Z
           M 202.00,99.00
           C 202.00,99.00 202.00,100.00 202.00,100.00
             202.00,100.00 201.00,99.00 201.00,99.00
             201.00,99.00 202.00,99.00 202.00,99.00 Z
           M 663.00,102.00
           C 663.00,102.00 672.00,101.00 672.00,101.00
             669.15,97.77 664.65,97.40 663.00,102.00 Z
           M 701.00,99.00
           C 701.00,99.00 701.00,100.00 701.00,100.00
             701.00,100.00 700.00,99.00 700.00,99.00
             700.00,99.00 701.00,99.00 701.00,99.00 Z
           M 882.00,99.00
           C 882.00,99.00 880.00,103.00 880.00,103.00
             880.00,103.00 878.00,102.00 878.00,102.00
             878.00,102.00 872.00,106.00 872.00,106.00
             872.00,106.00 872.00,102.00 872.00,102.00
             872.00,102.00 875.00,103.00 875.00,103.00
             875.00,103.00 882.00,99.00 882.00,99.00 Z
           M 168.00,100.00
           C 168.00,100.00 168.00,101.00 168.00,101.00
             168.00,101.00 167.00,100.00 167.00,100.00
             167.00,100.00 168.00,100.00 168.00,100.00 Z
           M 844.00,100.00
           C 844.00,100.00 844.00,101.00 844.00,101.00
             844.00,101.00 843.00,100.00 843.00,100.00
             843.00,100.00 844.00,100.00 844.00,100.00 Z
           M 66.00,101.00
           C 66.00,101.00 66.00,102.00 66.00,102.00
             66.00,102.00 65.00,101.00 65.00,101.00
             65.00,101.00 66.00,101.00 66.00,101.00 Z
           M 66.00,105.00
           C 66.00,105.00 63.00,104.00 63.00,104.00
             63.00,104.00 61.00,107.00 61.00,107.00
             61.00,107.00 61.00,103.00 61.00,103.00
             64.12,102.72 64.15,102.43 66.00,105.00 Z
           M 614.00,106.00
           C 617.00,104.48 617.09,104.22 618.00,101.00
             618.00,101.00 614.00,106.00 614.00,106.00 Z
           M 677.00,102.00
           C 677.00,102.00 677.00,103.00 677.00,103.00
             677.00,103.00 676.00,102.00 676.00,102.00
             676.00,102.00 677.00,102.00 677.00,102.00 Z
           M 717.00,105.00
           C 717.00,105.00 716.00,106.00 716.00,106.00
             716.00,106.00 713.00,102.00 713.00,102.00
             713.00,102.00 717.00,105.00 717.00,105.00 Z
           M 871.00,103.00
           C 871.00,103.00 871.00,104.00 871.00,104.00
             871.00,104.00 870.00,103.00 870.00,103.00
             870.00,103.00 871.00,103.00 871.00,103.00 Z
           M 870.00,104.00
           C 870.00,104.00 870.00,105.00 870.00,105.00
             870.00,105.00 869.00,104.00 869.00,104.00
             869.00,104.00 870.00,104.00 870.00,104.00 Z
           M 880.00,105.00
           C 879.96,108.57 879.52,108.78 876.00,109.00
             876.00,109.00 871.00,113.00 871.00,113.00
             871.00,113.00 880.00,105.00 880.00,105.00 Z
           M 58.00,106.00
           C 58.00,106.00 58.00,107.00 58.00,107.00
             58.00,107.00 57.00,106.00 57.00,106.00
             57.00,106.00 58.00,106.00 58.00,106.00 Z
           M 71.00,108.00
           C 71.00,108.00 68.00,106.00 68.00,106.00
             68.00,106.00 71.00,108.00 71.00,108.00 Z
           M 659.00,106.00
           C 659.00,106.00 659.00,107.00 659.00,107.00
             659.00,107.00 658.00,106.00 658.00,106.00
             658.00,106.00 659.00,106.00 659.00,106.00 Z
           M 717.00,106.00
           C 717.00,106.00 717.00,107.00 717.00,107.00
             717.00,107.00 716.00,106.00 716.00,106.00
             716.00,106.00 717.00,106.00 717.00,106.00 Z
           M 835.00,106.00
           C 835.00,106.00 835.00,107.00 835.00,107.00
             835.00,107.00 834.00,106.00 834.00,106.00
             834.00,106.00 835.00,106.00 835.00,106.00 Z
           M 867.00,106.00
           C 867.00,106.00 867.00,107.00 867.00,107.00
             867.00,107.00 866.00,106.00 866.00,106.00
             866.00,106.00 867.00,106.00 867.00,106.00 Z
           M 61.00,107.00
           C 61.00,107.00 61.00,108.00 61.00,108.00
             61.00,108.00 60.00,107.00 60.00,107.00
             60.00,107.00 61.00,107.00 61.00,107.00 Z
           M 643.00,107.00
           C 643.00,107.00 643.00,108.00 643.00,108.00
             643.00,108.00 642.00,107.00 642.00,107.00
             642.00,107.00 643.00,107.00 643.00,107.00 Z
           M 655.00,107.00
           C 655.00,107.00 655.00,108.00 655.00,108.00
             655.00,108.00 654.00,107.00 654.00,107.00
             654.00,107.00 655.00,107.00 655.00,107.00 Z
           M 661.00,108.00
           C 661.00,108.00 656.00,111.00 656.00,111.00
             656.00,111.00 657.00,107.00 657.00,107.00
             657.00,107.00 661.00,108.00 661.00,108.00 Z
           M 865.00,107.00
           C 865.00,107.00 865.00,108.00 865.00,108.00
             865.00,108.00 864.00,107.00 864.00,107.00
             864.00,107.00 865.00,107.00 865.00,107.00 Z
           M 870.00,107.00
           C 870.00,107.00 870.00,110.00 870.00,110.00
             870.00,110.00 867.00,110.00 867.00,110.00
             867.00,110.00 870.00,107.00 870.00,107.00 Z
           M 56.00,108.00
           C 54.83,111.87 54.60,112.15 51.00,114.00
             51.00,114.00 56.00,108.00 56.00,108.00 Z
           M 59.00,108.00
           C 59.00,108.00 59.00,109.00 59.00,109.00
             59.00,109.00 58.00,108.00 58.00,108.00
             58.00,108.00 59.00,108.00 59.00,108.00 Z
           M 78.00,108.00
           C 78.00,108.00 78.00,109.00 78.00,109.00
             78.00,109.00 77.00,108.00 77.00,108.00
             77.00,108.00 78.00,108.00 78.00,108.00 Z
           M 649.00,108.00
           C 649.00,108.00 649.00,109.00 649.00,109.00
             649.00,109.00 648.00,108.00 648.00,108.00
             648.00,108.00 649.00,108.00 649.00,108.00 Z
           M 76.00,109.00
           C 76.00,109.00 76.00,110.00 76.00,110.00
             76.00,110.00 75.00,109.00 75.00,109.00
             75.00,109.00 76.00,109.00 76.00,109.00 Z
           M 648.00,109.00
           C 648.00,109.00 642.00,113.00 642.00,113.00
             642.00,113.00 641.00,112.00 641.00,112.00
             643.80,109.24 644.12,109.32 648.00,109.00 Z
           M 860.00,109.00
           C 860.00,109.00 860.00,110.00 860.00,110.00
             860.00,110.00 859.00,109.00 859.00,109.00
             859.00,109.00 860.00,109.00 860.00,109.00 Z
           M 865.00,109.00
           C 865.00,109.00 865.00,110.00 865.00,110.00
             865.00,110.00 864.00,109.00 864.00,109.00
             864.00,109.00 865.00,109.00 865.00,109.00 Z
           M 72.00,110.00
           C 72.00,110.00 68.00,112.00 68.00,112.00
             68.00,112.00 72.00,110.00 72.00,110.00 Z
           M 610.00,114.00
           C 614.02,112.99 614.93,112.65 617.00,109.00
             612.78,109.60 611.95,110.18 610.00,114.00 Z
           M 863.00,110.00
           C 863.00,110.00 863.00,111.00 863.00,111.00
             863.00,111.00 862.00,110.00 862.00,110.00
             862.00,110.00 863.00,110.00 863.00,110.00 Z
           M 866.00,110.00
           C 866.00,110.00 866.00,111.00 866.00,111.00
             866.00,111.00 865.00,110.00 865.00,110.00
             865.00,110.00 866.00,110.00 866.00,110.00 Z
           M 61.00,111.00
           C 61.00,111.00 61.00,112.00 61.00,112.00
             61.00,112.00 60.00,111.00 60.00,111.00
             60.00,111.00 61.00,111.00 61.00,111.00 Z
           M 655.00,111.00
           C 655.00,111.00 655.00,112.00 655.00,112.00
             655.00,112.00 654.00,111.00 654.00,111.00
             654.00,111.00 655.00,111.00 655.00,111.00 Z
           M 638.00,113.00
           C 638.00,113.00 638.00,114.00 638.00,114.00
             638.00,114.00 637.00,113.00 637.00,113.00
             637.00,113.00 638.00,113.00 638.00,113.00 Z
           M 852.00,113.00
           C 852.00,113.00 852.00,114.00 852.00,114.00
             852.00,114.00 851.00,113.00 851.00,113.00
             851.00,113.00 852.00,113.00 852.00,113.00 Z
           M 860.00,113.00
           C 860.00,113.00 860.00,114.00 860.00,114.00
             860.00,114.00 859.00,113.00 859.00,113.00
             859.00,113.00 860.00,113.00 860.00,113.00 Z
           M 865.00,113.00
           C 865.00,113.00 860.00,115.00 860.00,115.00
             860.00,115.00 865.00,113.00 865.00,113.00 Z
           M 51.00,114.00
           C 51.00,114.00 51.00,115.00 51.00,115.00
             51.00,115.00 50.00,114.00 50.00,114.00
             50.00,114.00 51.00,114.00 51.00,114.00 Z
           M 630.00,114.00
           C 630.00,114.00 631.00,116.00 631.00,116.00
             631.00,116.00 632.00,116.00 632.00,116.00
             632.00,116.00 627.00,119.00 627.00,119.00
             627.00,119.00 608.00,126.00 608.00,126.00
             608.00,126.00 611.33,122.68 611.33,122.68
             611.33,122.68 625.08,114.91 625.08,114.91
             625.08,114.91 630.00,114.00 630.00,114.00 Z
           M 637.00,114.00
           C 637.00,114.00 637.00,115.00 637.00,115.00
             637.00,115.00 636.00,114.00 636.00,114.00
             636.00,114.00 637.00,114.00 637.00,114.00 Z
           M 869.00,114.00
           C 869.00,114.00 869.00,115.00 869.00,115.00
             869.00,115.00 868.00,114.00 868.00,114.00
             868.00,114.00 869.00,114.00 869.00,114.00 Z
           M 50.00,115.00
           C 50.00,115.00 50.00,116.00 50.00,116.00
             50.00,116.00 49.00,115.00 49.00,115.00
             49.00,115.00 50.00,115.00 50.00,115.00 Z
           M 855.00,115.00
           C 855.00,115.00 855.00,116.00 855.00,116.00
             855.00,116.00 854.00,115.00 854.00,115.00
             854.00,115.00 855.00,115.00 855.00,115.00 Z
           M 64.00,116.00
           C 64.00,116.00 59.00,119.00 59.00,119.00
             59.00,119.00 59.00,116.00 59.00,116.00
             59.00,116.00 64.00,116.00 64.00,116.00 Z
           M 854.00,116.00
           C 854.00,116.00 851.00,118.00 851.00,118.00
             851.00,118.00 854.00,116.00 854.00,116.00 Z
           M 38.00,117.00
           C 38.00,117.00 38.00,118.00 38.00,118.00
             38.00,118.00 37.00,117.00 37.00,117.00
             37.00,117.00 38.00,117.00 38.00,117.00 Z
           M 838.00,117.00
           C 838.00,117.00 838.00,118.00 838.00,118.00
             838.00,118.00 837.00,117.00 837.00,117.00
             837.00,117.00 838.00,117.00 838.00,117.00 Z
           M 37.00,118.00
           C 37.00,118.00 37.00,119.00 37.00,119.00
             37.00,119.00 36.00,118.00 36.00,118.00
             36.00,118.00 37.00,118.00 37.00,118.00 Z
           M 36.00,119.00
           C 36.00,119.00 33.00,123.00 33.00,123.00
             33.00,123.00 31.00,120.00 31.00,120.00
             31.00,120.00 36.00,119.00 36.00,119.00 Z
           M 53.00,119.00
           C 53.00,119.00 51.00,123.00 51.00,123.00
             51.00,123.00 53.00,119.00 53.00,119.00 Z
           M 59.00,119.00
           C 59.00,119.00 59.00,120.00 59.00,120.00
             59.00,120.00 58.00,119.00 58.00,119.00
             58.00,119.00 59.00,119.00 59.00,119.00 Z
           M 69.00,119.00
           C 69.00,119.00 69.00,120.00 69.00,120.00
             69.00,120.00 68.00,119.00 68.00,119.00
             68.00,119.00 69.00,119.00 69.00,119.00 Z
           M 607.00,119.00
           C 607.00,119.00 607.00,120.00 607.00,120.00
             607.00,120.00 606.00,119.00 606.00,119.00
             606.00,119.00 607.00,119.00 607.00,119.00 Z
           M 858.00,119.00
           C 858.00,119.00 858.00,120.00 858.00,120.00
             858.00,120.00 857.00,119.00 857.00,119.00
             857.00,119.00 858.00,119.00 858.00,119.00 Z
           M 39.00,120.00
           C 39.00,120.00 39.00,121.00 39.00,121.00
             39.00,121.00 38.00,120.00 38.00,120.00
             38.00,120.00 39.00,120.00 39.00,120.00 Z
           M 43.00,120.00
           C 43.00,120.00 43.00,121.00 43.00,121.00
             43.00,121.00 42.00,120.00 42.00,120.00
             42.00,120.00 43.00,120.00 43.00,120.00 Z
           M 58.00,120.00
           C 58.00,120.00 58.00,121.00 58.00,121.00
             58.00,121.00 57.00,120.00 57.00,120.00
             57.00,120.00 58.00,120.00 58.00,120.00 Z
           M 327.00,120.00
           C 327.00,120.00 327.00,121.00 327.00,121.00
             327.00,121.00 326.00,120.00 326.00,120.00
             326.00,120.00 327.00,120.00 327.00,120.00 Z
           M 852.00,120.00
           C 852.00,120.00 852.00,121.00 852.00,121.00
             852.00,121.00 851.00,120.00 851.00,120.00
             851.00,120.00 852.00,120.00 852.00,120.00 Z
           M 857.00,120.00
           C 857.00,120.00 857.00,121.00 857.00,121.00
             857.00,121.00 856.00,120.00 856.00,120.00
             856.00,120.00 857.00,120.00 857.00,120.00 Z
           M 42.00,121.00
           C 42.00,121.00 42.00,122.00 42.00,122.00
             42.00,122.00 41.00,121.00 41.00,121.00
             41.00,121.00 42.00,121.00 42.00,121.00 Z
           M 57.00,121.00
           C 57.00,121.00 57.00,122.00 57.00,122.00
             57.00,122.00 56.00,121.00 56.00,121.00
             56.00,121.00 57.00,121.00 57.00,121.00 Z
           M 205.00,123.00
           C 205.00,123.00 204.00,126.00 204.00,126.00
             211.01,125.40 212.68,133.36 214.00,139.00
             214.00,139.00 211.00,139.00 211.00,139.00
             213.25,144.40 212.62,144.60 213.45,150.00
             213.79,154.13 214.53,158.88 213.45,163.00
             211.47,172.54 197.34,188.39 190.00,194.85
             181.17,202.61 165.55,213.55 159.00,197.00
             165.13,188.72 157.17,179.47 155.78,174.00
             154.47,168.82 158.42,153.68 161.41,149.27
             163.10,146.79 167.19,143.93 170.00,143.00
             171.59,128.05 191.31,115.78 205.00,123.00 Z
           M 851.00,121.00
           C 851.00,121.00 851.00,122.00 851.00,122.00
             851.00,122.00 850.00,121.00 850.00,121.00
             850.00,121.00 851.00,121.00 851.00,121.00 Z
           M 41.00,122.00
           C 41.00,122.00 41.00,123.00 41.00,123.00
             41.00,123.00 40.00,122.00 40.00,122.00
             40.00,122.00 41.00,122.00 41.00,122.00 Z
           M 56.00,122.00
           C 56.00,122.00 56.00,123.00 56.00,123.00
             56.00,123.00 55.00,122.00 55.00,122.00
             55.00,122.00 56.00,122.00 56.00,122.00 Z
           M 297.00,122.00
           C 297.00,122.00 297.00,123.00 297.00,123.00
             297.00,123.00 296.00,122.00 296.00,122.00
             296.00,122.00 297.00,122.00 297.00,122.00 Z
           M 300.00,122.00
           C 300.00,122.00 300.00,123.00 300.00,123.00
             300.00,123.00 299.00,122.00 299.00,122.00
             299.00,122.00 300.00,122.00 300.00,122.00 Z
           M 312.00,122.00
           C 312.00,122.00 312.00,123.00 312.00,123.00
             312.00,123.00 311.00,122.00 311.00,122.00
             311.00,122.00 312.00,122.00 312.00,122.00 Z
           M 607.00,122.00
           C 607.00,122.00 607.00,123.00 607.00,123.00
             607.00,123.00 606.00,122.00 606.00,122.00
             606.00,122.00 607.00,122.00 607.00,122.00 Z
           M 40.00,123.00
           C 40.00,123.00 40.00,124.00 40.00,124.00
             40.00,124.00 39.00,123.00 39.00,123.00
             39.00,123.00 40.00,123.00 40.00,123.00 Z
           M 590.00,125.00
           C 590.00,125.00 593.00,122.00 593.00,122.00
             593.00,122.00 590.00,125.00 590.00,125.00 Z
           M 606.00,123.00
           C 606.00,123.00 606.00,124.00 606.00,124.00
             606.00,124.00 605.00,123.00 605.00,123.00
             605.00,123.00 606.00,123.00 606.00,123.00 Z
           M 862.00,123.00
           C 860.56,128.05 856.90,129.37 852.00,130.00
             853.69,125.19 857.50,124.57 862.00,123.00 Z
           M 39.00,124.00
           C 39.00,124.00 39.00,125.00 39.00,125.00
             39.00,125.00 38.00,124.00 38.00,124.00
             38.00,124.00 39.00,124.00 39.00,124.00 Z
           M 249.00,124.00
           C 249.00,124.00 249.00,125.00 249.00,125.00
             249.00,125.00 248.00,124.00 248.00,124.00
             248.00,124.00 249.00,124.00 249.00,124.00 Z
           M 605.00,124.00
           C 605.00,124.00 605.00,125.00 605.00,125.00
             605.00,125.00 604.00,124.00 604.00,124.00
             604.00,124.00 605.00,124.00 605.00,124.00 Z
           M 38.00,125.00
           C 38.00,125.00 38.00,126.00 38.00,126.00
             38.00,126.00 37.00,125.00 37.00,125.00
             37.00,125.00 38.00,125.00 38.00,125.00 Z
           M 252.00,125.00
           C 252.00,125.00 252.00,126.00 252.00,126.00
             252.00,126.00 251.00,125.00 251.00,125.00
             251.00,125.00 252.00,125.00 252.00,125.00 Z
           M 287.00,125.00
           C 287.00,125.00 287.00,126.00 287.00,126.00
             287.00,126.00 286.00,125.00 286.00,125.00
             286.00,125.00 287.00,125.00 287.00,125.00 Z
           M 314.00,125.00
           C 314.00,125.00 314.00,126.00 314.00,126.00
             314.00,126.00 313.00,125.00 313.00,125.00
             313.00,125.00 314.00,125.00 314.00,125.00 Z
           M 29.00,126.00
           C 29.00,126.00 24.00,131.00 24.00,131.00
             24.00,131.00 27.00,126.00 27.00,126.00
             27.00,126.00 29.00,126.00 29.00,126.00 Z
           M 37.00,126.00
           C 37.00,126.00 37.00,127.00 37.00,127.00
             37.00,127.00 36.00,126.00 36.00,126.00
             36.00,126.00 37.00,126.00 37.00,126.00 Z
           M 50.00,126.00
           C 50.00,126.00 50.00,127.00 50.00,127.00
             50.00,127.00 49.00,126.00 49.00,126.00
             49.00,126.00 50.00,126.00 50.00,126.00 Z
           M 45.00,127.00
           C 45.00,127.00 46.00,131.00 46.00,131.00
             46.00,131.00 43.00,132.00 43.00,132.00
             43.00,132.00 45.00,127.00 45.00,127.00 Z
           M 34.00,129.00
           C 34.00,129.00 34.00,130.00 34.00,130.00
             34.00,130.00 33.00,129.00 33.00,129.00
             33.00,129.00 34.00,129.00 34.00,129.00 Z
           M 52.00,129.00
           C 52.00,129.00 52.00,130.00 52.00,130.00
             52.00,130.00 51.00,129.00 51.00,129.00
             51.00,129.00 52.00,129.00 52.00,129.00 Z
           M 319.00,129.00
           C 319.00,129.00 319.00,130.00 319.00,130.00
             319.00,130.00 318.00,129.00 318.00,129.00
             318.00,129.00 319.00,129.00 319.00,129.00 Z
           M 806.00,131.00
           C 806.00,131.00 811.00,128.00 811.00,128.00
             811.00,128.00 806.00,131.00 806.00,131.00 Z
           M 848.00,129.00
           C 848.00,129.00 850.00,133.00 850.00,133.00
             850.00,133.00 843.00,131.00 843.00,131.00
             843.00,131.00 848.00,129.00 848.00,129.00 Z
           M 38.00,130.00
           C 38.00,130.00 39.00,133.00 39.00,133.00
             39.00,133.00 38.00,134.00 38.00,134.00
             38.00,134.00 36.00,133.00 36.00,133.00
             36.00,133.00 38.00,130.00 38.00,130.00 Z
           M 852.00,130.00
           C 852.00,130.00 852.00,131.00 852.00,131.00
             852.00,131.00 851.00,130.00 851.00,130.00
             851.00,130.00 852.00,130.00 852.00,130.00 Z
           M 41.00,131.00
           C 41.00,131.00 41.00,132.00 41.00,132.00
             41.00,132.00 40.00,131.00 40.00,131.00
             40.00,131.00 41.00,131.00 41.00,131.00 Z
           M 24.00,132.00
           C 24.00,132.00 24.00,133.00 24.00,133.00
             24.00,133.00 23.00,132.00 23.00,132.00
             23.00,132.00 24.00,132.00 24.00,132.00 Z
           M 66.00,132.00
           C 66.00,132.00 66.00,133.00 66.00,133.00
             66.00,133.00 65.00,132.00 65.00,132.00
             65.00,132.00 66.00,132.00 66.00,132.00 Z
           M 308.00,132.00
           C 308.00,132.00 308.00,133.00 308.00,133.00
             308.00,133.00 307.00,132.00 307.00,132.00
             307.00,132.00 308.00,132.00 308.00,132.00 Z
           M 829.00,132.00
           C 829.00,132.00 829.00,133.00 829.00,133.00
             829.00,133.00 828.00,132.00 828.00,132.00
             828.00,132.00 829.00,132.00 829.00,132.00 Z
           M 23.00,133.00
           C 23.00,133.00 23.00,134.00 23.00,134.00
             23.00,134.00 22.00,133.00 22.00,133.00
             22.00,133.00 23.00,133.00 23.00,133.00 Z
           M 30.00,133.00
           C 30.00,133.00 26.00,136.00 26.00,136.00
             26.00,136.00 30.00,133.00 30.00,133.00 Z
           M 42.00,133.00
           C 42.00,133.00 42.00,134.00 42.00,134.00
             42.00,134.00 41.00,133.00 41.00,133.00
             41.00,133.00 42.00,133.00 42.00,133.00 Z
           M 65.00,133.00
           C 65.00,133.00 65.00,134.00 65.00,134.00
             65.00,134.00 64.00,133.00 64.00,133.00
             64.00,133.00 65.00,133.00 65.00,133.00 Z
           M 713.00,146.00
           C 713.00,146.00 712.00,149.00 712.00,149.00
             712.00,149.00 715.00,149.00 715.00,149.00
             715.00,149.00 713.00,154.00 713.00,154.00
             713.00,154.00 716.00,154.00 716.00,154.00
             717.02,163.40 718.05,166.58 715.00,176.00
             715.00,176.00 711.00,174.00 711.00,174.00
             711.00,174.00 710.30,179.00 710.30,179.00
             710.30,179.00 701.44,195.78 701.44,195.78
             701.44,195.78 697.00,199.00 697.00,199.00
             697.00,199.00 697.00,196.00 697.00,196.00
             697.00,196.00 693.00,200.00 693.00,200.00
             693.00,200.00 691.00,199.00 691.00,199.00
             686.40,203.55 677.98,205.65 671.72,206.99
             658.35,209.85 641.41,211.45 628.00,207.84
             620.07,205.71 610.67,201.15 609.31,192.00
             608.98,189.76 609.61,187.21 610.00,185.00
             610.00,185.00 612.00,187.00 612.00,187.00
             615.27,179.84 617.33,179.88 618.99,175.91
             618.99,175.91 622.66,162.17 622.66,162.17
             623.89,159.26 632.69,148.51 635.30,146.29
             638.50,143.56 647.43,137.22 651.00,141.00
             651.00,141.00 653.00,141.00 653.00,141.00
             655.56,137.82 657.50,139.12 663.00,136.93
             672.84,133.00 687.88,131.43 697.83,135.72
             699.75,136.54 711.09,144.39 713.00,146.00 Z
           M 37.00,134.00
           C 37.00,134.00 37.00,135.00 37.00,135.00
             37.00,135.00 36.00,134.00 36.00,134.00
             36.00,134.00 37.00,134.00 37.00,134.00 Z
           M 41.00,134.00
           C 41.00,134.00 38.00,137.00 38.00,137.00
             38.00,137.00 41.00,134.00 41.00,134.00 Z
           M 64.00,134.00
           C 61.67,138.29 59.62,138.96 55.00,140.00
             55.00,140.00 64.00,134.00 64.00,134.00 Z
           M 591.00,134.00
           C 591.00,134.00 591.00,135.00 591.00,135.00
             591.00,135.00 590.00,134.00 590.00,134.00
             590.00,134.00 591.00,134.00 591.00,134.00 Z
           M 36.00,135.00
           C 36.00,135.00 36.00,136.00 36.00,136.00
             36.00,136.00 35.00,135.00 35.00,135.00
             35.00,135.00 36.00,135.00 36.00,135.00 Z
           M 797.00,137.00
           C 797.00,137.00 800.00,134.00 800.00,134.00
             800.00,134.00 797.00,137.00 797.00,137.00 Z
           M 804.00,135.00
           C 804.00,135.00 804.00,136.00 804.00,136.00
             804.00,136.00 803.00,135.00 803.00,135.00
             803.00,135.00 804.00,135.00 804.00,135.00 Z
           M 808.00,135.00
           C 808.00,135.00 808.00,136.00 808.00,136.00
             808.00,136.00 807.00,135.00 807.00,135.00
             807.00,135.00 808.00,135.00 808.00,135.00 Z
           M 20.00,136.00
           C 20.00,136.00 20.00,137.00 20.00,137.00
             20.00,137.00 19.00,136.00 19.00,136.00
             19.00,136.00 20.00,136.00 20.00,136.00 Z
           M 26.00,136.00
           C 26.00,136.00 26.00,137.00 26.00,137.00
             26.00,137.00 25.00,136.00 25.00,136.00
             25.00,136.00 26.00,136.00 26.00,136.00 Z
           M 566.00,136.00
           C 566.27,139.70 566.20,140.06 563.00,142.00
             563.00,142.00 563.00,138.00 563.00,138.00
             563.00,138.00 566.00,136.00 566.00,136.00 Z
           M 18.00,139.00
           C 18.00,139.00 16.00,144.00 16.00,144.00
             16.00,144.00 16.00,139.00 16.00,139.00
             16.00,139.00 18.00,139.00 18.00,139.00 Z
           M 24.00,139.00
           C 24.00,139.00 24.00,140.00 24.00,140.00
             24.00,140.00 23.00,139.00 23.00,139.00
             23.00,139.00 24.00,139.00 24.00,139.00 Z
           M 47.00,139.00
           C 47.00,139.00 47.00,140.00 47.00,140.00
             47.00,140.00 46.00,139.00 46.00,139.00
             46.00,139.00 47.00,139.00 47.00,139.00 Z
           M 829.00,139.00
           C 829.00,139.00 826.00,142.00 826.00,142.00
             826.00,142.00 829.00,139.00 829.00,139.00 Z
           M 23.00,140.00
           C 23.00,140.00 23.00,141.00 23.00,141.00
             23.00,141.00 22.00,140.00 22.00,140.00
             22.00,140.00 23.00,140.00 23.00,140.00 Z
           M 46.00,140.00
           C 46.00,140.00 46.00,141.00 46.00,141.00
             46.00,141.00 45.00,140.00 45.00,140.00
             45.00,140.00 46.00,140.00 46.00,140.00 Z
           M 309.00,140.00
           C 309.00,140.00 309.00,141.00 309.00,141.00
             309.00,141.00 308.00,140.00 308.00,140.00
             308.00,140.00 309.00,140.00 309.00,140.00 Z
           M 588.00,141.00
           C 588.00,141.00 588.00,145.00 588.00,145.00
             588.00,145.00 585.00,149.00 585.00,149.00
             585.00,149.00 581.00,147.00 581.00,147.00
             583.30,143.64 583.65,141.04 588.00,141.00 Z
           M 840.00,140.00
           C 840.00,140.00 840.00,141.00 840.00,141.00
             840.00,141.00 839.00,140.00 839.00,140.00
             839.00,140.00 840.00,140.00 840.00,140.00 Z
           M 45.00,141.00
           C 45.00,141.00 45.00,142.00 45.00,142.00
             45.00,142.00 44.00,141.00 44.00,141.00
             44.00,141.00 45.00,141.00 45.00,141.00 Z
           M 307.00,141.00
           C 307.00,141.00 307.00,142.00 307.00,142.00
             307.00,142.00 306.00,141.00 306.00,141.00
             306.00,141.00 307.00,141.00 307.00,141.00 Z
           M 571.00,142.00
           C 571.00,142.00 570.00,147.00 570.00,147.00
             570.00,147.00 566.00,145.00 566.00,145.00
             566.00,145.00 567.00,141.00 567.00,141.00
             567.00,141.00 571.00,142.00 571.00,142.00 Z
           M 573.00,141.00
           C 573.00,141.00 573.00,142.00 573.00,142.00
             573.00,142.00 572.00,141.00 572.00,141.00
             572.00,141.00 573.00,141.00 573.00,141.00 Z
           M 299.00,142.00
           C 299.00,142.00 299.00,143.00 299.00,143.00
             299.00,143.00 298.00,142.00 298.00,142.00
             298.00,142.00 299.00,142.00 299.00,142.00 Z
           M 301.00,142.00
           C 301.00,142.00 301.00,143.00 301.00,143.00
             301.00,143.00 300.00,142.00 300.00,142.00
             300.00,142.00 301.00,142.00 301.00,142.00 Z
           M 574.00,142.00
           C 574.00,142.00 574.00,143.00 574.00,143.00
             574.00,143.00 573.00,142.00 573.00,142.00
             573.00,142.00 574.00,142.00 574.00,142.00 Z
           M 822.00,144.00
           C 822.00,144.00 822.00,145.00 822.00,145.00
             822.00,145.00 821.00,144.00 821.00,144.00
             821.00,144.00 822.00,144.00 822.00,144.00 Z
           M 830.00,145.00
           C 830.00,145.00 827.00,147.00 827.00,147.00
             827.00,147.00 830.00,145.00 830.00,145.00 Z
           M 810.00,146.00
           C 810.00,146.00 810.00,147.00 810.00,147.00
             810.00,147.00 809.00,146.00 809.00,146.00
             809.00,146.00 810.00,146.00 810.00,146.00 Z
           M 575.00,148.00
           C 575.00,148.00 575.00,149.00 575.00,149.00
             575.00,149.00 574.00,148.00 574.00,148.00
             574.00,148.00 575.00,148.00 575.00,148.00 Z
           M 825.00,148.00
           C 825.00,148.00 825.00,149.00 825.00,149.00
             825.00,149.00 824.00,148.00 824.00,148.00
             824.00,148.00 825.00,148.00 825.00,148.00 Z
           M 824.00,149.00
           C 824.00,149.00 824.00,150.00 824.00,150.00
             824.00,150.00 823.00,149.00 823.00,149.00
             823.00,149.00 824.00,149.00 824.00,149.00 Z
           M 15.00,150.00
           C 15.00,150.00 15.00,154.00 15.00,154.00
             15.00,154.00 15.00,150.00 15.00,150.00 Z
           M 327.00,150.00
           C 327.00,150.00 327.00,151.00 327.00,151.00
             327.00,151.00 326.00,150.00 326.00,150.00
             326.00,150.00 327.00,150.00 327.00,150.00 Z
           M 823.00,150.00
           C 823.00,150.00 823.00,151.00 823.00,151.00
             823.00,151.00 822.00,150.00 822.00,150.00
             822.00,150.00 823.00,150.00 823.00,150.00 Z
           M 342.00,151.00
           C 342.00,151.00 342.00,152.00 342.00,152.00
             342.00,152.00 341.00,151.00 341.00,151.00
             341.00,151.00 342.00,151.00 342.00,151.00 Z
           M 578.00,151.00
           C 578.00,151.00 580.00,157.00 580.00,157.00
             577.23,154.93 576.78,154.34 578.00,151.00 Z
           M 822.00,151.00
           C 822.00,151.00 822.00,152.00 822.00,152.00
             822.00,152.00 821.00,151.00 821.00,151.00
             821.00,151.00 822.00,151.00 822.00,151.00 Z
           M 573.00,152.00
           C 573.00,152.00 574.00,160.00 574.00,160.00
             574.00,160.00 573.00,160.00 573.00,160.00
             573.00,160.00 571.00,158.00 571.00,158.00
             571.00,158.00 571.00,157.00 571.00,157.00
             571.00,157.00 573.00,157.00 573.00,157.00
             573.00,157.00 573.00,152.00 573.00,152.00 Z
           M 575.00,152.00
           C 575.00,152.00 575.00,153.00 575.00,153.00
             575.00,153.00 574.00,152.00 574.00,152.00
             574.00,152.00 575.00,152.00 575.00,152.00 Z
           M 821.00,152.00
           C 821.00,152.00 821.00,153.00 821.00,153.00
             821.00,153.00 820.00,152.00 820.00,152.00
             820.00,152.00 821.00,152.00 821.00,152.00 Z
           M 110.00,155.00
           C 110.00,155.00 107.00,155.00 107.00,155.00
             107.00,155.00 108.00,153.00 108.00,153.00
             108.00,153.00 110.00,154.00 110.00,154.00
             110.00,154.00 110.00,155.00 110.00,155.00 Z
           M 111.00,153.00
           C 111.00,153.00 111.00,154.00 111.00,154.00
             111.00,154.00 110.00,153.00 110.00,153.00
             110.00,153.00 111.00,153.00 111.00,153.00 Z
           M 820.00,153.00
           C 820.00,153.00 817.00,155.00 817.00,155.00
             817.00,155.00 820.00,153.00 820.00,153.00 Z
           M 107.00,155.00
           C 107.00,155.00 108.00,156.00 108.00,156.00
             105.48,158.51 101.18,162.17 98.00,159.00
             98.00,159.00 107.00,155.00 107.00,155.00 Z
           M 823.00,155.00
           C 821.18,159.85 809.94,169.92 805.00,172.00
             808.52,165.02 815.64,160.50 821.00,155.00
             821.00,155.00 823.00,155.00 823.00,155.00 Z
           M 47.00,156.00
           C 47.00,156.00 47.00,157.00 47.00,157.00
             47.00,157.00 46.00,156.00 46.00,156.00
             46.00,156.00 47.00,156.00 47.00,156.00 Z
           M 815.00,156.00
           C 815.00,156.00 812.00,159.00 812.00,159.00
             812.00,159.00 815.00,156.00 815.00,156.00 Z
           M 46.00,157.00
           C 46.00,157.00 46.00,158.00 46.00,158.00
             46.00,158.00 45.00,157.00 45.00,157.00
             45.00,157.00 46.00,157.00 46.00,157.00 Z
           M 93.00,158.00
           C 93.00,158.00 93.00,159.00 93.00,159.00
             93.00,159.00 92.00,158.00 92.00,158.00
             92.00,158.00 93.00,158.00 93.00,158.00 Z
           M 712.00,158.00
           C 712.00,158.00 714.00,161.00 714.00,161.00
             714.00,161.00 712.00,158.00 712.00,158.00 Z
           M 98.00,161.00
           C 98.00,161.00 93.00,164.00 93.00,164.00
             93.00,164.00 98.00,161.00 98.00,161.00 Z
           M 84.00,162.00
           C 84.00,162.00 84.00,163.00 84.00,163.00
             84.00,163.00 83.00,162.00 83.00,162.00
             83.00,162.00 84.00,162.00 84.00,162.00 Z
           M 93.00,162.00
           C 93.00,162.00 93.00,163.00 93.00,163.00
             93.00,163.00 92.00,162.00 92.00,162.00
             92.00,162.00 93.00,162.00 93.00,162.00 Z
           M 83.00,163.00
           C 83.00,163.00 83.00,164.00 83.00,164.00
             83.00,164.00 82.00,163.00 82.00,163.00
             82.00,163.00 83.00,163.00 83.00,163.00 Z
           M 577.00,163.00
           C 577.00,163.00 577.00,164.00 577.00,164.00
             577.00,164.00 576.00,163.00 576.00,163.00
             576.00,163.00 577.00,163.00 577.00,163.00 Z
           M 775.00,164.00
           C 775.00,164.00 775.00,165.00 775.00,165.00
             775.00,165.00 774.00,164.00 774.00,164.00
             774.00,164.00 775.00,164.00 775.00,164.00 Z
           M 89.00,165.00
           C 89.00,165.00 84.00,168.00 84.00,168.00
             84.00,168.00 89.00,165.00 89.00,165.00 Z
           M 74.00,167.00
           C 74.00,167.00 74.00,168.00 74.00,168.00
             74.00,168.00 73.00,167.00 73.00,167.00
             73.00,167.00 74.00,167.00 74.00,167.00 Z
           M 73.00,168.00
           C 73.00,168.00 73.00,169.00 73.00,169.00
             73.00,169.00 72.00,168.00 72.00,168.00
             72.00,168.00 73.00,168.00 73.00,168.00 Z
           M 84.00,168.00
           C 84.00,168.00 81.00,170.00 81.00,170.00
             81.00,170.00 84.00,168.00 84.00,168.00 Z
           M 95.00,168.00
           C 95.00,168.00 91.00,170.00 91.00,170.00
             91.00,170.00 95.00,168.00 95.00,168.00 Z
           M 72.00,169.00
           C 72.00,169.00 72.00,170.00 72.00,170.00
             72.00,170.00 71.00,169.00 71.00,169.00
             71.00,169.00 72.00,169.00 72.00,169.00 Z
           M 81.00,170.00
           C 81.00,170.00 78.00,172.00 78.00,172.00
             78.00,172.00 81.00,170.00 81.00,170.00 Z
           M 77.00,171.00
           C 77.00,171.00 78.00,172.00 78.00,172.00
             78.00,172.00 74.00,176.00 74.00,176.00
             74.00,176.00 71.00,174.00 71.00,174.00
             71.00,174.00 77.00,171.00 77.00,171.00 Z
           M 90.00,171.00
           C 90.00,171.00 90.00,172.00 90.00,172.00
             90.00,172.00 89.00,171.00 89.00,171.00
             89.00,171.00 90.00,171.00 90.00,171.00 Z
           M 439.00,172.00
           C 439.00,172.00 439.00,173.00 439.00,173.00
             439.00,173.00 438.00,172.00 438.00,172.00
             438.00,172.00 439.00,172.00 439.00,172.00 Z
           M 816.00,172.00
           C 816.00,172.00 816.00,173.00 816.00,173.00
             816.00,173.00 815.00,172.00 815.00,172.00
             815.00,172.00 816.00,172.00 816.00,172.00 Z
           M 71.00,175.00
           C 71.00,175.00 71.00,176.00 71.00,176.00
             71.00,176.00 70.00,175.00 70.00,175.00
             70.00,175.00 71.00,175.00 71.00,175.00 Z
           M 82.00,175.00
           C 82.00,175.00 82.00,176.00 82.00,176.00
             82.00,176.00 81.00,175.00 81.00,175.00
             81.00,175.00 82.00,175.00 82.00,175.00 Z
           M 813.00,175.00
           C 813.00,175.00 813.00,176.00 813.00,176.00
             813.00,176.00 812.00,175.00 812.00,175.00
             812.00,175.00 813.00,175.00 813.00,175.00 Z
           M 812.00,176.00
           C 812.00,176.00 811.00,178.00 811.00,178.00
             811.00,178.00 806.00,176.00 806.00,176.00
             806.00,176.00 812.00,176.00 812.00,176.00 Z
           M 79.00,177.00
           C 79.00,177.00 79.00,178.00 79.00,178.00
             79.00,178.00 78.00,177.00 78.00,177.00
             78.00,177.00 79.00,177.00 79.00,177.00 Z
           M 78.00,178.00
           C 78.00,178.00 78.00,179.00 78.00,179.00
             78.00,179.00 77.00,178.00 77.00,178.00
             77.00,178.00 78.00,178.00 78.00,178.00 Z
           M 69.00,180.00
           C 69.00,180.00 69.00,181.00 69.00,181.00
             69.00,181.00 68.00,180.00 68.00,180.00
             68.00,180.00 69.00,180.00 69.00,180.00 Z
           M 803.00,180.00
           C 803.00,180.00 803.00,181.00 803.00,181.00
             803.00,181.00 802.00,180.00 802.00,180.00
             802.00,180.00 803.00,180.00 803.00,180.00 Z
           M 802.00,181.00
           C 802.00,181.00 799.00,183.00 799.00,183.00
             799.00,183.00 802.00,181.00 802.00,181.00 Z
           M 67.00,182.00
           C 67.00,182.00 67.00,183.00 67.00,183.00
             67.00,183.00 66.00,182.00 66.00,182.00
             66.00,182.00 67.00,182.00 67.00,182.00 Z
           M 569.00,182.00
           C 569.00,182.00 569.00,183.00 569.00,183.00
             569.00,183.00 568.00,182.00 568.00,182.00
             568.00,182.00 569.00,182.00 569.00,182.00 Z
           M 804.00,183.00
           C 804.00,183.00 804.00,184.00 804.00,184.00
             804.00,184.00 803.00,183.00 803.00,183.00
             803.00,183.00 804.00,183.00 804.00,183.00 Z
           M 253.00,183.00
           C 253.00,183.00 253.00,187.00 253.00,187.00
             253.00,187.00 257.00,183.00 257.00,183.00
             257.00,183.00 253.00,183.00 253.00,183.00 Z
           M 806.00,184.00
           C 806.00,184.00 806.00,185.00 806.00,185.00
             806.00,185.00 805.00,184.00 805.00,184.00
             805.00,184.00 806.00,184.00 806.00,184.00 Z
           M 99.00,185.00
           C 99.00,185.00 99.00,186.00 99.00,186.00
             99.00,186.00 98.00,185.00 98.00,185.00
             98.00,185.00 99.00,185.00 99.00,185.00 Z
           M 576.00,187.00
           C 576.00,187.00 579.00,201.00 579.00,201.00
             576.18,197.29 574.49,191.53 576.00,187.00 Z
           M 252.00,188.00
           C 252.50,191.38 252.12,192.00 255.00,194.00
             255.00,194.00 255.00,188.00 255.00,188.00
             255.00,188.00 252.00,188.00 252.00,188.00 Z
           M 264.00,189.00
           C 264.00,189.00 264.00,190.00 264.00,190.00
             264.00,190.00 263.00,189.00 263.00,189.00
             263.00,189.00 264.00,189.00 264.00,189.00 Z
           M 895.00,194.00
           C 895.00,194.00 895.00,197.00 895.00,197.00
             895.00,197.00 898.00,197.00 898.00,197.00
             898.00,197.00 895.00,194.00 895.00,194.00 Z
           M 526.00,196.00
           C 526.00,196.00 526.00,197.00 526.00,197.00
             526.00,197.00 525.00,196.00 525.00,196.00
             525.00,196.00 526.00,196.00 526.00,196.00 Z
           M 867.00,197.00
           C 867.00,197.00 867.00,198.00 867.00,198.00
             867.00,198.00 866.00,197.00 866.00,197.00
             866.00,197.00 867.00,197.00 867.00,197.00 Z
           M 580.00,201.00
           C 580.00,201.00 580.00,202.00 580.00,202.00
             580.00,202.00 579.00,201.00 579.00,201.00
             579.00,201.00 580.00,201.00 580.00,201.00 Z
           M 581.00,202.00
           C 581.00,202.00 582.00,205.00 582.00,205.00
             582.00,205.00 581.00,202.00 581.00,202.00 Z
           M 263.00,203.00
           C 263.00,203.00 263.00,207.00 263.00,207.00
             263.00,207.00 263.00,203.00 263.00,203.00 Z
           M 527.00,203.00
           C 527.00,203.00 527.00,204.00 527.00,204.00
             527.00,204.00 526.00,203.00 526.00,203.00
             526.00,203.00 527.00,203.00 527.00,203.00 Z
           M 536.00,205.00
           C 536.00,205.00 539.00,207.00 539.00,207.00
             539.00,207.00 537.00,210.00 537.00,210.00
             537.00,210.00 535.00,208.00 535.00,208.00
             535.00,208.00 534.00,208.00 534.00,208.00
             534.00,208.00 536.00,205.00 536.00,205.00 Z
           M 533.00,206.00
           C 533.00,206.00 533.00,207.00 533.00,207.00
             533.00,207.00 532.00,206.00 532.00,206.00
             532.00,206.00 533.00,206.00 533.00,206.00 Z
           M 264.00,207.00
           C 264.00,207.00 264.00,208.00 264.00,208.00
             264.00,208.00 263.00,207.00 263.00,207.00
             263.00,207.00 264.00,207.00 264.00,207.00 Z
           M 263.00,210.00
           C 263.00,210.00 263.00,216.00 263.00,216.00
             263.00,216.00 263.00,210.00 263.00,210.00 Z
           M 539.00,210.00
           C 539.00,210.00 539.00,211.00 539.00,211.00
             539.00,211.00 538.00,210.00 538.00,210.00
             538.00,210.00 539.00,210.00 539.00,210.00 Z
           M 552.00,222.00
           C 552.00,222.00 552.00,223.00 552.00,223.00
             552.00,223.00 551.00,222.00 551.00,222.00
             551.00,222.00 552.00,222.00 552.00,222.00 Z
           M 561.00,222.00
           C 561.00,222.00 561.00,223.00 561.00,223.00
             561.00,223.00 560.00,222.00 560.00,222.00
             560.00,222.00 561.00,222.00 561.00,222.00 Z
           M 551.00,223.00
           C 551.00,223.00 551.00,224.00 551.00,224.00
             551.00,224.00 550.00,223.00 550.00,223.00
             550.00,223.00 551.00,223.00 551.00,223.00 Z
           M 562.00,223.00
           C 562.00,223.00 562.00,224.00 562.00,224.00
             562.00,224.00 561.00,223.00 561.00,223.00
             561.00,223.00 562.00,223.00 562.00,223.00 Z
           M 587.00,224.00
           C 589.27,227.83 589.87,228.34 594.00,230.00
             592.01,225.94 591.34,225.29 587.00,224.00 Z
           M 552.00,228.00
           C 552.00,228.00 558.00,232.00 558.00,232.00
             556.71,228.23 555.94,227.85 552.00,228.00 Z
           M 546.00,232.00
           C 546.00,232.00 546.00,233.00 546.00,233.00
             546.00,233.00 545.00,232.00 545.00,232.00
             545.00,232.00 546.00,232.00 546.00,232.00 Z
           M 17.00,233.00
           C 17.00,233.00 17.00,234.00 17.00,234.00
             17.00,234.00 16.00,233.00 16.00,233.00
             16.00,233.00 17.00,233.00 17.00,233.00 Z
           M 545.00,240.00
           C 545.00,240.00 545.00,241.00 545.00,241.00
             545.00,241.00 544.00,240.00 544.00,240.00
             544.00,240.00 545.00,240.00 545.00,240.00 Z
           M 22.00,241.00
           C 22.00,241.00 22.00,242.00 22.00,242.00
             22.00,242.00 21.00,241.00 21.00,241.00
             21.00,241.00 22.00,241.00 22.00,241.00 Z
           M 23.00,242.00
           C 23.00,242.00 23.00,243.00 23.00,243.00
             23.00,243.00 22.00,242.00 22.00,242.00
             22.00,242.00 23.00,242.00 23.00,242.00 Z
           M 337.00,245.00
           C 337.00,245.00 337.00,246.00 337.00,246.00
             337.00,246.00 336.00,245.00 336.00,245.00
             336.00,245.00 337.00,245.00 337.00,245.00 Z
           M 501.00,251.00
           C 501.00,251.00 504.00,248.00 504.00,248.00
             504.00,248.00 501.00,251.00 501.00,251.00 Z
           M 684.00,254.00
           C 684.00,254.00 684.00,255.00 684.00,255.00
             684.00,255.00 683.00,254.00 683.00,254.00
             683.00,254.00 684.00,254.00 684.00,254.00 Z
           M 973.00,256.00
           C 973.00,256.00 973.00,257.00 973.00,257.00
             973.00,257.00 972.00,256.00 972.00,256.00
             972.00,256.00 973.00,256.00 973.00,256.00 Z
           M 966.00,258.00
           C 966.00,258.00 966.00,259.00 966.00,259.00
             966.00,259.00 965.00,258.00 965.00,258.00
             965.00,258.00 966.00,258.00 966.00,258.00 Z" />


  </g>
</svg>
